<?xml version="1.0" encoding="UTF-8" standalone="no"?><svg xmlns="http://www.w3.org/2000/svg" xmlns:xlink="http://www.w3.org/1999/xlink" contentStyleType="text/css" height="1348px" preserveAspectRatio="none" style="width:2198px;height:1348px;background:#FFFFFF;" version="1.1" viewBox="0 0 2198 1348" width="2198px" zoomAndPan="magnify"><defs/><g><!--MD5=[c6a9a7642f17677606d751901eb3e4df]
cluster sprint1_smart_device::main.dart--><g id="cluster_sprint1_smart_device::main.dart"><path d="M1335.5,323.5 L1561.5,323.5 A3.75,3.75 0 0 1 1564,326 L1571,347.1094 L1571.5,347.1094 A2.5,2.5 0 0 1 1574,349.6094 L1574,439 A2.5,2.5 0 0 1 1571.5,441.5 L1335.5,441.5 A2.5,2.5 0 0 1 1333,439 L1333,326 A2.5,2.5 0 0 1 1335.5,323.5 " fill="none" style="stroke:#000000;stroke-width:1.5;"/><line style="stroke:#000000;stroke-width:1.5;" x1="1333" x2="1571" y1="347.1094" y2="347.1094"/><text fill="#000000" font-family="sans-serif" font-size="14" font-weight="bold" lengthAdjust="spacing" textLength="225" x="1337" y="340.0332">sprint1_smart_device::main.dart</text></g><!--MD5=[1b91236ccc4e258431d00b8b19fdf6ca]
cluster flutter::src::widgets::framework.dart--><g id="cluster_flutter::src::widgets::framework.dart"><path d="M729.5,6 L980.5,6 A3.75,3.75 0 0 1 983,8.5 L990,29.6094 L1364.5,29.6094 A2.5,2.5 0 0 1 1367,32.1094 L1367,103.5 A2.5,2.5 0 0 1 1364.5,106 L729.5,106 A2.5,2.5 0 0 1 727,103.5 L727,8.5 A2.5,2.5 0 0 1 729.5,6 " fill="none" style="stroke:#000000;stroke-width:1.5;"/><line style="stroke:#000000;stroke-width:1.5;" x1="727" x2="990" y1="29.6094" y2="29.6094"/><text fill="#000000" font-family="sans-serif" font-size="14" font-weight="bold" lengthAdjust="spacing" textLength="250" x="731" y="22.5332">flutter::src::widgets::framework.dart</text></g><!--MD5=[f67e6d5b25edab234577f541265f6557]
cluster sprint1_smart_device::model::networking::client_connection.dart--><g id="cluster_sprint1_smart_device::model::networking::client_connection.dart"><path d="M442.5,659 L899.5,659 A3.75,3.75 0 0 1 902,661.5 L909,682.6094 L909.5,682.6094 A2.5,2.5 0 0 1 912,685.1094 L912,914.5 A2.5,2.5 0 0 1 909.5,917 L442.5,917 A2.5,2.5 0 0 1 440,914.5 L440,661.5 A2.5,2.5 0 0 1 442.5,659 " fill="none" style="stroke:#000000;stroke-width:1.5;"/><line style="stroke:#000000;stroke-width:1.5;" x1="440" x2="909" y1="682.6094" y2="682.6094"/><text fill="#000000" font-family="sans-serif" font-size="14" font-weight="bold" lengthAdjust="spacing" textLength="456" x="444" y="675.5332">sprint1_smart_device::model::networking::client_connection.dart</text></g><!--MD5=[ca02874e861335d48da8dc6ad2991353]
cluster sprint1_smart_device::model::networking::server_connection.dart--><g id="cluster_sprint1_smart_device::model::networking::server_connection.dart"><path d="M1553.5,6 L2018.5,6 A3.75,3.75 0 0 1 2021,8.5 L2028,29.6094 L2028.5,29.6094 A2.5,2.5 0 0 1 2031,32.1094 L2031,103.5 A2.5,2.5 0 0 1 2028.5,106 L1553.5,106 A2.5,2.5 0 0 1 1551,103.5 L1551,8.5 A2.5,2.5 0 0 1 1553.5,6 " fill="none" style="stroke:#000000;stroke-width:1.5;"/><line style="stroke:#000000;stroke-width:1.5;" x1="1551" x2="2028" y1="29.6094" y2="29.6094"/><text fill="#000000" font-family="sans-serif" font-size="14" font-weight="bold" lengthAdjust="spacing" textLength="464" x="1555" y="22.5332">sprint1_smart_device::model::networking::server_connection.dart</text></g><!--MD5=[3252b31a01a7f92709e4f92f3b999622]
cluster sprint1_smart_device::model::networking::tcp_client_connection.dart--><g id="cluster_sprint1_smart_device::model::networking::tcp_client_connection.dart"><path d="M426.5,941 L913.5,941 A3.75,3.75 0 0 1 916,943.5 L923,964.6094 L923.5,964.6094 A2.5,2.5 0 0 1 926,967.1094 L926,1214.5 A2.5,2.5 0 0 1 923.5,1217 L426.5,1217 A2.5,2.5 0 0 1 424,1214.5 L424,943.5 A2.5,2.5 0 0 1 426.5,941 " fill="none" style="stroke:#000000;stroke-width:1.5;"/><line style="stroke:#000000;stroke-width:1.5;" x1="424" x2="923" y1="964.6094" y2="964.6094"/><text fill="#000000" font-family="sans-serif" font-size="14" font-weight="bold" lengthAdjust="spacing" textLength="486" x="428" y="957.5332">sprint1_smart_device::model::networking::tcp_client_connection.dart</text></g><!--MD5=[1f164aaaa47b73b4703eaffa9255b6ef]
cluster dart::io--><g id="cluster_dart::io"><path d="M525.5,1241 L575.5,1241 A3.75,3.75 0 0 1 578,1243.5 L585,1264.6094 L795.5,1264.6094 A2.5,2.5 0 0 1 798,1267.1094 L798,1338.5 A2.5,2.5 0 0 1 795.5,1341 L525.5,1341 A2.5,2.5 0 0 1 523,1338.5 L523,1243.5 A2.5,2.5 0 0 1 525.5,1241 " fill="none" style="stroke:#000000;stroke-width:1.5;"/><line style="stroke:#000000;stroke-width:1.5;" x1="523" x2="585" y1="1264.6094" y2="1264.6094"/><text fill="#000000" font-family="sans-serif" font-size="14" font-weight="bold" lengthAdjust="spacing" textLength="49" x="527" y="1257.5332">dart::io</text></g><!--MD5=[bf3a786c965d8321f00871b4bf0ff2e7]
cluster sprint1_smart_device::model::waste_service::store_request.dart--><g id="cluster_sprint1_smart_device::model::waste_service::store_request.dart"><path d="M1600.5,279.5 L2054.5,279.5 A3.75,3.75 0 0 1 2057,282 L2064,303.1094 L2064.5,303.1094 A2.5,2.5 0 0 1 2067,305.6094 L2067,483 A2.5,2.5 0 0 1 2064.5,485.5 L1600.5,485.5 A2.5,2.5 0 0 1 1598,483 L1598,282 A2.5,2.5 0 0 1 1600.5,279.5 " fill="none" style="stroke:#000000;stroke-width:1.5;"/><line style="stroke:#000000;stroke-width:1.5;" x1="1598" x2="2064" y1="303.1094" y2="303.1094"/><text fill="#000000" font-family="sans-serif" font-size="14" font-weight="bold" lengthAdjust="spacing" textLength="453" x="1602" y="296.0332">sprint1_smart_device::model::waste_service::store_request.dart</text></g><!--MD5=[bcd4e6b9112e26bfed39076ffe52e317]
cluster sprint1_smart_device::model::waste_service::waste_type.dart--><g id="cluster_sprint1_smart_device::model::waste_service::waste_type.dart"><path d="M1725.5,703 L2158.5,703 A3.75,3.75 0 0 1 2161,705.5 L2168,726.6094 L2168.5,726.6094 A2.5,2.5 0 0 1 2171,729.1094 L2171,870.5 A2.5,2.5 0 0 1 2168.5,873 L1725.5,873 A2.5,2.5 0 0 1 1723,870.5 L1723,705.5 A2.5,2.5 0 0 1 1725.5,703 " fill="none" style="stroke:#000000;stroke-width:1.5;"/><line style="stroke:#000000;stroke-width:1.5;" x1="1723" x2="2168" y1="726.6094" y2="726.6094"/><text fill="#000000" font-family="sans-serif" font-size="14" font-weight="bold" lengthAdjust="spacing" textLength="432" x="1727" y="719.5332">sprint1_smart_device::model::waste_service::waste_type.dart</text></g><!--MD5=[de232fdc1314c20d23c64be510ba818f]
cluster dart::core--><g id="cluster_dart::core"><path d="M2093.5,332.5 L2162.5,332.5 A3.75,3.75 0 0 1 2165,335 L2172,356.1094 L2188.5,356.1094 A2.5,2.5 0 0 1 2191,358.6094 L2191,430 A2.5,2.5 0 0 1 2188.5,432.5 L2093.5,432.5 A2.5,2.5 0 0 1 2091,430 L2091,335 A2.5,2.5 0 0 1 2093.5,332.5 " fill="none" style="stroke:#000000;stroke-width:1.5;"/><line style="stroke:#000000;stroke-width:1.5;" x1="2091" x2="2172" y1="356.1094" y2="356.1094"/><text fill="#000000" font-family="sans-serif" font-size="14" font-weight="bold" lengthAdjust="spacing" textLength="68" x="2095" y="349.0332">dart::core</text></g><!--MD5=[dfd0b35a0bf68c638555f40e59d486df]
cluster sprint1_smart_device::view::view_home.dart--><g id="cluster_sprint1_smart_device::view::view_home.dart"><path d="M8.5,218 L322.5,218 A3.75,3.75 0 0 1 325,220.5 L332,241.6094 L607.5,241.6094 A2.5,2.5 0 0 1 610,244.1094 L610,544.5 A2.5,2.5 0 0 1 607.5,547 L8.5,547 A2.5,2.5 0 0 1 6,544.5 L6,220.5 A2.5,2.5 0 0 1 8.5,218 " fill="none" style="stroke:#000000;stroke-width:1.5;"/><line style="stroke:#000000;stroke-width:1.5;" x1="6" x2="332" y1="241.6094" y2="241.6094"/><text fill="#000000" font-family="sans-serif" font-size="14" font-weight="bold" lengthAdjust="spacing" textLength="313" x="10" y="234.5332">sprint1_smart_device::view::view_home.dart</text></g><!--MD5=[e06b2be89d5a0e5a906fffa5e578fb31]
cluster flutter::src::widgets::editable_text.dart--><g id="cluster_flutter::src::widgets::editable_text.dart"><path d="M134.5,738 L403.5,738 A3.75,3.75 0 0 1 406,740.5 L413,761.6094 L413.5,761.6094 A2.5,2.5 0 0 1 416,764.1094 L416,835.5 A2.5,2.5 0 0 1 413.5,838 L134.5,838 A2.5,2.5 0 0 1 132,835.5 L132,740.5 A2.5,2.5 0 0 1 134.5,738 " fill="none" style="stroke:#000000;stroke-width:1.5;"/><line style="stroke:#000000;stroke-width:1.5;" x1="132" x2="413" y1="761.6094" y2="761.6094"/><text fill="#000000" font-family="sans-serif" font-size="14" font-weight="bold" lengthAdjust="spacing" textLength="268" x="136" y="754.5332">flutter::src::widgets::editable_text.dart</text></g><!--MD5=[57cc12940415a940225a5f5afc8c9c00]
cluster sprint1_smart_device::view::view_request.dart--><g id="cluster_sprint1_smart_device::view::view_request.dart"><path d="M636.5,130 L966.5,130 A3.75,3.75 0 0 1 969,132.5 L976,153.6094 L1306.5,153.6094 A2.5,2.5 0 0 1 1309,156.1094 L1309,632.5 A2.5,2.5 0 0 1 1306.5,635 L636.5,635 A2.5,2.5 0 0 1 634,632.5 L634,132.5 A2.5,2.5 0 0 1 636.5,130 " fill="none" style="stroke:#000000;stroke-width:1.5;"/><line style="stroke:#000000;stroke-width:1.5;" x1="634" x2="976" y1="153.6094" y2="153.6094"/><text fill="#000000" font-family="sans-serif" font-size="14" font-weight="bold" lengthAdjust="spacing" textLength="329" x="638" y="146.5332">sprint1_smart_device::view::view_request.dart</text></g><!--MD5=[04257f857959a3b038effff71316c606]
cluster null--><g id="cluster_null"><path d="M1394.5,738 L1421.5,738 A3.75,3.75 0 0 1 1424,740.5 L1431,761.6094 L1657.5,761.6094 A2.5,2.5 0 0 1 1660,764.1094 L1660,835.5 A2.5,2.5 0 0 1 1657.5,838 L1394.5,838 A2.5,2.5 0 0 1 1392,835.5 L1392,740.5 A2.5,2.5 0 0 1 1394.5,738 " fill="none" style="stroke:#000000;stroke-width:1.5;"/><line style="stroke:#000000;stroke-width:1.5;" x1="1392" x2="1431" y1="761.6094" y2="761.6094"/><text fill="#000000" font-family="sans-serif" font-size="14" font-weight="bold" lengthAdjust="spacing" textLength="26" x="1396" y="754.5332">null</text></g><!--MD5=[45dc6e40b809177530f56b536abb0ce2]
cluster flutter::src::widgets::scroll_controller.dart--><g id="cluster_flutter::src::widgets::scroll_controller.dart"><path d="M938.5,738 L1231.5,738 A3.75,3.75 0 0 1 1234,740.5 L1241,761.6094 L1241.5,761.6094 A2.5,2.5 0 0 1 1244,764.1094 L1244,835.5 A2.5,2.5 0 0 1 1241.5,838 L938.5,838 A2.5,2.5 0 0 1 936,835.5 L936,740.5 A2.5,2.5 0 0 1 938.5,738 " fill="none" style="stroke:#000000;stroke-width:1.5;"/><line style="stroke:#000000;stroke-width:1.5;" x1="936" x2="1241" y1="761.6094" y2="761.6094"/><text fill="#000000" font-family="sans-serif" font-size="14" font-weight="bold" lengthAdjust="spacing" textLength="292" x="940" y="754.5332">flutter::src::widgets::scroll_controller.dart</text></g><!--MD5=[095cfae3c22cf566456f2576653870c3]
cluster dart::async--><g id="cluster_dart::async"><path d="M1270.5,738 L1347.5,738 A3.75,3.75 0 0 1 1350,740.5 L1357,761.6094 L1365.5,761.6094 A2.5,2.5 0 0 1 1368,764.1094 L1368,835.5 A2.5,2.5 0 0 1 1365.5,838 L1270.5,838 A2.5,2.5 0 0 1 1268,835.5 L1268,740.5 A2.5,2.5 0 0 1 1270.5,738 " fill="none" style="stroke:#000000;stroke-width:1.5;"/><line style="stroke:#000000;stroke-width:1.5;" x1="1268" x2="1357" y1="761.6094" y2="761.6094"/><text fill="#000000" font-family="sans-serif" font-size="14" font-weight="bold" lengthAdjust="spacing" textLength="76" x="1272" y="754.5332">dart::async</text></g><!--MD5=[03a63d7447b67683be5ad1430cb4afea]
class sprint1_smart_device::main.dart::MyApp--><g id="elem_sprint1_smart_device::main.dart::MyApp"><rect codeLine="3" fill="#F1F1F1" height="65.6094" id="sprint1_smart_device::main.dart::MyApp" rx="2.5" ry="2.5" style="stroke:#181818;stroke-width:0.5;" width="114" x="1349" y="359.5"/><ellipse cx="1381.55" cy="375.5" fill="#ADD1B2" rx="11" ry="11" style="stroke:#181818;stroke-width:1.0;"/><path d="M1384.3156,371.375 Q1384.4719,371.1563 1384.6594,371.0469 Q1384.8469,370.9375 1385.0656,370.9375 Q1385.4406,370.9375 1385.675,371.2031 Q1385.9094,371.4531 1385.9094,372.0625 L1385.9094,373.5156 Q1385.9094,374.125 1385.675,374.3906 Q1385.4406,374.6563 1385.0656,374.6563 Q1384.7219,374.6563 1384.5188,374.4531 Q1384.3156,374.2656 1384.2063,373.75 Q1384.1594,373.3906 1383.9719,373.2031 Q1383.6438,372.8281 1383.0344,372.6094 Q1382.425,372.3906 1381.8,372.3906 Q1381.0344,372.3906 1380.3938,372.7188 Q1379.7688,373.0469 1379.2688,373.7969 Q1378.7844,374.5469 1378.7844,375.5781 L1378.7844,376.6719 Q1378.7844,377.9063 1379.675,378.7344 Q1380.5656,379.5469 1382.1594,379.5469 Q1383.0969,379.5469 1383.7531,379.2969 Q1384.1438,379.1406 1384.5656,378.7031 Q1384.8313,378.4375 1384.9719,378.3594 Q1385.1281,378.2813 1385.3313,378.2813 Q1385.6594,378.2813 1385.9094,378.5469 Q1386.175,378.7969 1386.175,379.1406 Q1386.175,379.4844 1385.8313,379.8906 Q1385.3313,380.4688 1384.5344,380.7969 Q1383.4563,381.25 1382.1594,381.25 Q1380.6438,381.25 1379.4406,380.625 Q1378.4563,380.125 1377.7688,379.0625 Q1377.0813,377.9844 1377.0813,376.7031 L1377.0813,375.5469 Q1377.0813,374.2188 1377.6906,373.0781 Q1378.3156,371.9219 1379.4094,371.3125 Q1380.5031,370.6875 1381.7375,370.6875 Q1382.4719,370.6875 1383.1125,370.8594 Q1383.7688,371.0156 1384.3156,371.375 Z " fill="#000000"/><text fill="#000000" font-family="sans-serif" font-size="14" lengthAdjust="spacing" textLength="43" x="1399.45" y="381.2285">MyApp</text><line style="stroke:#181818;stroke-width:0.5;" x1="1350" x2="1462" y1="391.5" y2="391.5"/><line style="stroke:#181818;stroke-width:0.5;" x1="1350" x2="1462" y1="399.5" y2="399.5"/><ellipse cx="1360" cy="413.8047" fill="#84BE84" rx="3" ry="3" style="stroke:#038048;stroke-width:1.0;"/><text fill="#000000" font-family="sans-serif" font-size="14" lengthAdjust="spacing" textLength="88" x="1369" y="418.0332">Widget build()</text></g><!--MD5=[efc9ff8382eabd0f0b822d1be18a98a9]
class flutter::src::widgets::framework.dart::StatelessWidget--><g id="elem_flutter::src::widgets::framework.dart::StatelessWidget"><rect fill="#F1F1F1" height="48" id="flutter::src::widgets::framework.dart::StatelessWidget" rx="2.5" ry="2.5" style="stroke:#181818;stroke-width:0.5;" width="134" x="1217" y="42"/><ellipse cx="1232" cy="58" fill="#ADD1B2" rx="11" ry="11" style="stroke:#181818;stroke-width:1.0;"/><path d="M1234.7656,53.875 Q1234.9219,53.6563 1235.1094,53.5469 Q1235.2969,53.4375 1235.5156,53.4375 Q1235.8906,53.4375 1236.125,53.7031 Q1236.3594,53.9531 1236.3594,54.5625 L1236.3594,56.0156 Q1236.3594,56.625 1236.125,56.8906 Q1235.8906,57.1563 1235.5156,57.1563 Q1235.1719,57.1563 1234.9688,56.9531 Q1234.7656,56.7656 1234.6563,56.25 Q1234.6094,55.8906 1234.4219,55.7031 Q1234.0938,55.3281 1233.4844,55.1094 Q1232.875,54.8906 1232.25,54.8906 Q1231.4844,54.8906 1230.8438,55.2188 Q1230.2188,55.5469 1229.7188,56.2969 Q1229.2344,57.0469 1229.2344,58.0781 L1229.2344,59.1719 Q1229.2344,60.4063 1230.125,61.2344 Q1231.0156,62.0469 1232.6094,62.0469 Q1233.5469,62.0469 1234.2031,61.7969 Q1234.5938,61.6406 1235.0156,61.2031 Q1235.2813,60.9375 1235.4219,60.8594 Q1235.5781,60.7813 1235.7813,60.7813 Q1236.1094,60.7813 1236.3594,61.0469 Q1236.625,61.2969 1236.625,61.6406 Q1236.625,61.9844 1236.2813,62.3906 Q1235.7813,62.9688 1234.9844,63.2969 Q1233.9063,63.75 1232.6094,63.75 Q1231.0938,63.75 1229.8906,63.125 Q1228.9063,62.625 1228.2188,61.5625 Q1227.5313,60.4844 1227.5313,59.2031 L1227.5313,58.0469 Q1227.5313,56.7188 1228.1406,55.5781 Q1228.7656,54.4219 1229.8594,53.8125 Q1230.9531,53.1875 1232.1875,53.1875 Q1232.9219,53.1875 1233.5625,53.3594 Q1234.2188,53.5156 1234.7656,53.875 Z " fill="#000000"/><text fill="#000000" font-family="sans-serif" font-size="14" lengthAdjust="spacing" textLength="102" x="1246" y="63.7285">StatelessWidget</text><line style="stroke:#181818;stroke-width:0.5;" x1="1218" x2="1350" y1="74" y2="74"/><line style="stroke:#181818;stroke-width:0.5;" x1="1218" x2="1350" y1="82" y2="82"/></g><!--MD5=[aa3f7eeafec522ba9bc8f59b3155082c]
class flutter::src::widgets::framework.dart::StatefulWidget--><g id="elem_flutter::src::widgets::framework.dart::StatefulWidget"><rect fill="#F1F1F1" height="48" id="flutter::src::widgets::framework.dart::StatefulWidget" rx="2.5" ry="2.5" style="stroke:#181818;stroke-width:0.5;" width="124" x="743" y="42"/><ellipse cx="758" cy="58" fill="#ADD1B2" rx="11" ry="11" style="stroke:#181818;stroke-width:1.0;"/><path d="M760.7656,53.875 Q760.9219,53.6563 761.1094,53.5469 Q761.2969,53.4375 761.5156,53.4375 Q761.8906,53.4375 762.125,53.7031 Q762.3594,53.9531 762.3594,54.5625 L762.3594,56.0156 Q762.3594,56.625 762.125,56.8906 Q761.8906,57.1563 761.5156,57.1563 Q761.1719,57.1563 760.9688,56.9531 Q760.7656,56.7656 760.6563,56.25 Q760.6094,55.8906 760.4219,55.7031 Q760.0938,55.3281 759.4844,55.1094 Q758.875,54.8906 758.25,54.8906 Q757.4844,54.8906 756.8438,55.2188 Q756.2188,55.5469 755.7188,56.2969 Q755.2344,57.0469 755.2344,58.0781 L755.2344,59.1719 Q755.2344,60.4063 756.125,61.2344 Q757.0156,62.0469 758.6094,62.0469 Q759.5469,62.0469 760.2031,61.7969 Q760.5938,61.6406 761.0156,61.2031 Q761.2813,60.9375 761.4219,60.8594 Q761.5781,60.7813 761.7813,60.7813 Q762.1094,60.7813 762.3594,61.0469 Q762.625,61.2969 762.625,61.6406 Q762.625,61.9844 762.2813,62.3906 Q761.7813,62.9688 760.9844,63.2969 Q759.9063,63.75 758.6094,63.75 Q757.0938,63.75 755.8906,63.125 Q754.9063,62.625 754.2188,61.5625 Q753.5313,60.4844 753.5313,59.2031 L753.5313,58.0469 Q753.5313,56.7188 754.1406,55.5781 Q754.7656,54.4219 755.8594,53.8125 Q756.9531,53.1875 758.1875,53.1875 Q758.9219,53.1875 759.5625,53.3594 Q760.2188,53.5156 760.7656,53.875 Z " fill="#000000"/><text fill="#000000" font-family="sans-serif" font-size="14" lengthAdjust="spacing" textLength="92" x="772" y="63.7285">StatefulWidget</text><line style="stroke:#181818;stroke-width:0.5;" x1="744" x2="866" y1="74" y2="74"/><line style="stroke:#181818;stroke-width:0.5;" x1="744" x2="866" y1="82" y2="82"/></g><!--MD5=[63bfe514f6548a169dac7789c902e03b]
class flutter::src::widgets::framework.dart::GlobalKey<FormState>--><g id="elem_flutter::src::widgets::framework.dart::GlobalKey&lt;FormState&gt;"><rect fill="#F1F1F1" height="48" id="flutter::src::widgets::framework.dart::GlobalKey&lt;FormState&gt;" rx="2.5" ry="2.5" style="stroke:#181818;stroke-width:0.5;" width="179" x="1002.5" y="42"/><ellipse cx="1017.5" cy="58" fill="#ADD1B2" rx="11" ry="11" style="stroke:#181818;stroke-width:1.0;"/><path d="M1020.2656,53.875 Q1020.4219,53.6563 1020.6094,53.5469 Q1020.7969,53.4375 1021.0156,53.4375 Q1021.3906,53.4375 1021.625,53.7031 Q1021.8594,53.9531 1021.8594,54.5625 L1021.8594,56.0156 Q1021.8594,56.625 1021.625,56.8906 Q1021.3906,57.1563 1021.0156,57.1563 Q1020.6719,57.1563 1020.4688,56.9531 Q1020.2656,56.7656 1020.1563,56.25 Q1020.1094,55.8906 1019.9219,55.7031 Q1019.5938,55.3281 1018.9844,55.1094 Q1018.375,54.8906 1017.75,54.8906 Q1016.9844,54.8906 1016.3438,55.2188 Q1015.7188,55.5469 1015.2188,56.2969 Q1014.7344,57.0469 1014.7344,58.0781 L1014.7344,59.1719 Q1014.7344,60.4063 1015.625,61.2344 Q1016.5156,62.0469 1018.1094,62.0469 Q1019.0469,62.0469 1019.7031,61.7969 Q1020.0938,61.6406 1020.5156,61.2031 Q1020.7813,60.9375 1020.9219,60.8594 Q1021.0781,60.7813 1021.2813,60.7813 Q1021.6094,60.7813 1021.8594,61.0469 Q1022.125,61.2969 1022.125,61.6406 Q1022.125,61.9844 1021.7813,62.3906 Q1021.2813,62.9688 1020.4844,63.2969 Q1019.4063,63.75 1018.1094,63.75 Q1016.5938,63.75 1015.3906,63.125 Q1014.4063,62.625 1013.7188,61.5625 Q1013.0313,60.4844 1013.0313,59.2031 L1013.0313,58.0469 Q1013.0313,56.7188 1013.6406,55.5781 Q1014.2656,54.4219 1015.3594,53.8125 Q1016.4531,53.1875 1017.6875,53.1875 Q1018.4219,53.1875 1019.0625,53.3594 Q1019.7188,53.5156 1020.2656,53.875 Z " fill="#000000"/><text fill="#000000" font-family="sans-serif" font-size="14" lengthAdjust="spacing" textLength="147" x="1031.5" y="63.7285">GlobalKey&lt;FormState&gt;</text><line style="stroke:#181818;stroke-width:0.5;" x1="1003.5" x2="1180.5" y1="74" y2="74"/><line style="stroke:#181818;stroke-width:0.5;" x1="1003.5" x2="1180.5" y1="82" y2="82"/></g><!--MD5=[9432619776e71801fd4b58594ef73518]
class flutter::src::widgets::framework.dart::State--><g id="elem_flutter::src::widgets::framework.dart::State"><rect fill="#F1F1F1" height="48" id="flutter::src::widgets::framework.dart::State" rx="2.5" ry="2.5" style="stroke:#181818;stroke-width:0.5;" width="65" x="902.5" y="42"/><ellipse cx="917.5" cy="58" fill="#ADD1B2" rx="11" ry="11" style="stroke:#181818;stroke-width:1.0;"/><path d="M920.2656,53.875 Q920.4219,53.6563 920.6094,53.5469 Q920.7969,53.4375 921.0156,53.4375 Q921.3906,53.4375 921.625,53.7031 Q921.8594,53.9531 921.8594,54.5625 L921.8594,56.0156 Q921.8594,56.625 921.625,56.8906 Q921.3906,57.1563 921.0156,57.1563 Q920.6719,57.1563 920.4688,56.9531 Q920.2656,56.7656 920.1563,56.25 Q920.1094,55.8906 919.9219,55.7031 Q919.5938,55.3281 918.9844,55.1094 Q918.375,54.8906 917.75,54.8906 Q916.9844,54.8906 916.3438,55.2188 Q915.7188,55.5469 915.2188,56.2969 Q914.7344,57.0469 914.7344,58.0781 L914.7344,59.1719 Q914.7344,60.4063 915.625,61.2344 Q916.5156,62.0469 918.1094,62.0469 Q919.0469,62.0469 919.7031,61.7969 Q920.0938,61.6406 920.5156,61.2031 Q920.7813,60.9375 920.9219,60.8594 Q921.0781,60.7813 921.2813,60.7813 Q921.6094,60.7813 921.8594,61.0469 Q922.125,61.2969 922.125,61.6406 Q922.125,61.9844 921.7813,62.3906 Q921.2813,62.9688 920.4844,63.2969 Q919.4063,63.75 918.1094,63.75 Q916.5938,63.75 915.3906,63.125 Q914.4063,62.625 913.7188,61.5625 Q913.0313,60.4844 913.0313,59.2031 L913.0313,58.0469 Q913.0313,56.7188 913.6406,55.5781 Q914.2656,54.4219 915.3594,53.8125 Q916.4531,53.1875 917.6875,53.1875 Q918.4219,53.1875 919.0625,53.3594 Q919.7188,53.5156 920.2656,53.875 Z " fill="#000000"/><text fill="#000000" font-family="sans-serif" font-size="14" lengthAdjust="spacing" textLength="33" x="931.5" y="63.7285">State</text><line style="stroke:#181818;stroke-width:0.5;" x1="903.5" x2="966.5" y1="74" y2="74"/><line style="stroke:#181818;stroke-width:0.5;" x1="903.5" x2="966.5" y1="82" y2="82"/></g><!--MD5=[b647c6df2147880389f390b01e717399]
class sprint1_smart_device::model::networking::client_connection.dart::ClientConnection--><g id="elem_sprint1_smart_device::model::networking::client_connection.dart::ClientConnection"><rect codeLine="9" fill="#F1F1F1" height="206.4844" id="sprint1_smart_device::model::networking::client_connection.dart::ClientConnection" rx="2.5" ry="2.5" style="stroke:#181818;stroke-width:0.5;" width="180" x="585" y="695"/><ellipse cx="618" cy="711" fill="#ADD1B2" rx="11" ry="11" style="stroke:#181818;stroke-width:1.0;"/><path d="M620.7656,706.875 Q620.9219,706.6563 621.1094,706.5469 Q621.2969,706.4375 621.5156,706.4375 Q621.8906,706.4375 622.125,706.7031 Q622.3594,706.9531 622.3594,707.5625 L622.3594,709.0156 Q622.3594,709.625 622.125,709.8906 Q621.8906,710.1563 621.5156,710.1563 Q621.1719,710.1563 620.9688,709.9531 Q620.7656,709.7656 620.6563,709.25 Q620.6094,708.8906 620.4219,708.7031 Q620.0938,708.3281 619.4844,708.1094 Q618.875,707.8906 618.25,707.8906 Q617.4844,707.8906 616.8438,708.2188 Q616.2188,708.5469 615.7188,709.2969 Q615.2344,710.0469 615.2344,711.0781 L615.2344,712.1719 Q615.2344,713.4063 616.125,714.2344 Q617.0156,715.0469 618.6094,715.0469 Q619.5469,715.0469 620.2031,714.7969 Q620.5938,714.6406 621.0156,714.2031 Q621.2813,713.9375 621.4219,713.8594 Q621.5781,713.7813 621.7813,713.7813 Q622.1094,713.7813 622.3594,714.0469 Q622.625,714.2969 622.625,714.6406 Q622.625,714.9844 622.2813,715.3906 Q621.7813,715.9688 620.9844,716.2969 Q619.9063,716.75 618.6094,716.75 Q617.0938,716.75 615.8906,716.125 Q614.9063,715.625 614.2188,714.5625 Q613.5313,713.4844 613.5313,712.2031 L613.5313,711.0469 Q613.5313,709.7188 614.1406,708.5781 Q614.7656,707.4219 615.8594,706.8125 Q616.9531,706.1875 618.1875,706.1875 Q618.9219,706.1875 619.5625,706.3594 Q620.2188,706.5156 620.7656,706.875 Z " fill="#000000"/><text fill="#000000" font-family="sans-serif" font-size="14" lengthAdjust="spacing" textLength="108" x="636" y="716.7285">ClientConnection</text><line style="stroke:#181818;stroke-width:0.5;" x1="586" x2="764" y1="727" y2="727"/><ellipse cx="596" cy="741.3047" fill="none" rx="3" ry="3" style="stroke:#038048;stroke-width:1.0;"/><text fill="#000000" font-family="sans-serif" font-size="14" lengthAdjust="spacing" textLength="107" x="605" y="745.5332">dynamic address</text><ellipse cx="596" cy="758.9141" fill="none" rx="3" ry="3" style="stroke:#038048;stroke-width:1.0;"/><text fill="#000000" font-family="sans-serif" font-size="14" lengthAdjust="spacing" textLength="152" x="605" y="763.1426">dynamic remoteAddress</text><ellipse cx="596" cy="776.5234" fill="none" rx="3" ry="3" style="stroke:#038048;stroke-width:1.0;"/><text fill="#000000" font-family="sans-serif" font-size="14" lengthAdjust="spacing" textLength="81" x="605" y="780.752">dynamic port</text><ellipse cx="596" cy="794.1328" fill="none" rx="3" ry="3" style="stroke:#038048;stroke-width:1.0;"/><text fill="#000000" font-family="sans-serif" font-size="14" lengthAdjust="spacing" textLength="126" x="605" y="798.3613">dynamic remotePort</text><line style="stroke:#181818;stroke-width:0.5;" x1="586" x2="764" y1="805.4375" y2="805.4375"/><ellipse cx="596" cy="819.7422" fill="#84BE84" rx="3" ry="3" style="stroke:#038048;stroke-width:1.0;"/><text fill="#000000" font-family="sans-serif" font-size="14" lengthAdjust="spacing" textLength="148" x="605" y="823.9707">Future&lt;void&gt; connect()</text><ellipse cx="596" cy="837.3516" fill="#84BE84" rx="3" ry="3" style="stroke:#038048;stroke-width:1.0;"/><text fill="#000000" font-family="sans-serif" font-size="14" lengthAdjust="spacing" textLength="131" x="605" y="841.5801">Future&lt;void&gt; close()</text><ellipse cx="596" cy="854.9609" fill="#84BE84" rx="3" ry="3" style="stroke:#038048;stroke-width:1.0;"/><text fill="#000000" font-family="sans-serif" font-size="14" lengthAdjust="spacing" textLength="145" x="605" y="859.1895">Future&lt;void&gt; destroy()</text><ellipse cx="596" cy="872.5703" fill="#84BE84" rx="3" ry="3" style="stroke:#038048;stroke-width:1.0;"/><text fill="#000000" font-family="sans-serif" font-size="14" lengthAdjust="spacing" textLength="99" x="605" y="876.7988">dynamic listen()</text><ellipse cx="596" cy="890.1797" fill="#84BE84" rx="3" ry="3" style="stroke:#038048;stroke-width:1.0;"/><text fill="#000000" font-family="sans-serif" font-size="14" lengthAdjust="spacing" textLength="154" x="605" y="894.4082">dynamic sendMessage()</text></g><!--MD5=[06934d573e210d1e4e3290b9765643c2]
class sprint1_smart_device::model::networking::server_connection.dart::ServerConnection--><g id="elem_sprint1_smart_device::model::networking::server_connection.dart::ServerConnection"><rect codeLine="21" fill="#F1F1F1" height="48" id="sprint1_smart_device::model::networking::server_connection.dart::ServerConnection" rx="2.5" ry="2.5" style="stroke:#181818;stroke-width:0.5;" width="146" x="1718" y="42"/><ellipse cx="1733" cy="58" fill="#ADD1B2" rx="11" ry="11" style="stroke:#181818;stroke-width:1.0;"/><path d="M1735.7656,53.875 Q1735.9219,53.6563 1736.1094,53.5469 Q1736.2969,53.4375 1736.5156,53.4375 Q1736.8906,53.4375 1737.125,53.7031 Q1737.3594,53.9531 1737.3594,54.5625 L1737.3594,56.0156 Q1737.3594,56.625 1737.125,56.8906 Q1736.8906,57.1563 1736.5156,57.1563 Q1736.1719,57.1563 1735.9688,56.9531 Q1735.7656,56.7656 1735.6563,56.25 Q1735.6094,55.8906 1735.4219,55.7031 Q1735.0938,55.3281 1734.4844,55.1094 Q1733.875,54.8906 1733.25,54.8906 Q1732.4844,54.8906 1731.8438,55.2188 Q1731.2188,55.5469 1730.7188,56.2969 Q1730.2344,57.0469 1730.2344,58.0781 L1730.2344,59.1719 Q1730.2344,60.4063 1731.125,61.2344 Q1732.0156,62.0469 1733.6094,62.0469 Q1734.5469,62.0469 1735.2031,61.7969 Q1735.5938,61.6406 1736.0156,61.2031 Q1736.2813,60.9375 1736.4219,60.8594 Q1736.5781,60.7813 1736.7813,60.7813 Q1737.1094,60.7813 1737.3594,61.0469 Q1737.625,61.2969 1737.625,61.6406 Q1737.625,61.9844 1737.2813,62.3906 Q1736.7813,62.9688 1735.9844,63.2969 Q1734.9063,63.75 1733.6094,63.75 Q1732.0938,63.75 1730.8906,63.125 Q1729.9063,62.625 1729.2188,61.5625 Q1728.5313,60.4844 1728.5313,59.2031 L1728.5313,58.0469 Q1728.5313,56.7188 1729.1406,55.5781 Q1729.7656,54.4219 1730.8594,53.8125 Q1731.9531,53.1875 1733.1875,53.1875 Q1733.9219,53.1875 1734.5625,53.3594 Q1735.2188,53.5156 1735.7656,53.875 Z " fill="#000000"/><text fill="#000000" font-family="sans-serif" font-size="14" lengthAdjust="spacing" textLength="114" x="1747" y="63.7285">ServerConnection</text><line style="stroke:#181818;stroke-width:0.5;" x1="1719" x2="1863" y1="74" y2="74"/><line style="stroke:#181818;stroke-width:0.5;" x1="1719" x2="1863" y1="82" y2="82"/></g><!--MD5=[3e65cd52ae599ea3171195647e2627a3]
class sprint1_smart_device::model::networking::tcp_client_connection.dart::TcpClientConnection--><g id="elem_sprint1_smart_device::model::networking::tcp_client_connection.dart::TcpClientConnection"><rect codeLine="24" fill="#F1F1F1" height="224.0938" id="sprint1_smart_device::model::networking::tcp_client_connection.dart::TcpClientConnection" rx="2.5" ry="2.5" style="stroke:#181818;stroke-width:0.5;" width="226" x="562" y="977"/><ellipse cx="604.9" cy="993" fill="#ADD1B2" rx="11" ry="11" style="stroke:#181818;stroke-width:1.0;"/><path d="M607.6656,988.875 Q607.8219,988.6563 608.0094,988.5469 Q608.1969,988.4375 608.4156,988.4375 Q608.7906,988.4375 609.025,988.7031 Q609.2594,988.9531 609.2594,989.5625 L609.2594,991.0156 Q609.2594,991.625 609.025,991.8906 Q608.7906,992.1563 608.4156,992.1563 Q608.0719,992.1563 607.8688,991.9531 Q607.6656,991.7656 607.5563,991.25 Q607.5094,990.8906 607.3219,990.7031 Q606.9938,990.3281 606.3844,990.1094 Q605.775,989.8906 605.15,989.8906 Q604.3844,989.8906 603.7438,990.2188 Q603.1188,990.5469 602.6188,991.2969 Q602.1344,992.0469 602.1344,993.0781 L602.1344,994.1719 Q602.1344,995.4063 603.025,996.2344 Q603.9156,997.0469 605.5094,997.0469 Q606.4469,997.0469 607.1031,996.7969 Q607.4938,996.6406 607.9156,996.2031 Q608.1813,995.9375 608.3219,995.8594 Q608.4781,995.7813 608.6813,995.7813 Q609.0094,995.7813 609.2594,996.0469 Q609.525,996.2969 609.525,996.6406 Q609.525,996.9844 609.1813,997.3906 Q608.6813,997.9688 607.8844,998.2969 Q606.8063,998.75 605.5094,998.75 Q603.9938,998.75 602.7906,998.125 Q601.8063,997.625 601.1188,996.5625 Q600.4313,995.4844 600.4313,994.2031 L600.4313,993.0469 Q600.4313,991.7188 601.0406,990.5781 Q601.6656,989.4219 602.7594,988.8125 Q603.8531,988.1875 605.0875,988.1875 Q605.8219,988.1875 606.4625,988.3594 Q607.1188,988.5156 607.6656,988.875 Z " fill="#000000"/><text fill="#000000" font-family="sans-serif" font-size="14" lengthAdjust="spacing" textLength="132" x="625.1" y="998.7285">TcpClientConnection</text><line style="stroke:#181818;stroke-width:0.5;" x1="563" x2="787" y1="1009" y2="1009"/><rect fill="none" height="6" style="stroke:#C82930;stroke-width:1.0;" width="6" x="570" y="1020.3047"/><text fill="#000000" font-family="sans-serif" font-size="14" lengthAdjust="spacing" textLength="96" x="582" y="1027.5332">Socket _socket</text><ellipse cx="573" cy="1040.9141" fill="none" rx="3" ry="3" style="stroke:#038048;stroke-width:1.0;"/><text fill="#000000" font-family="sans-serif" font-size="14" lengthAdjust="spacing" textLength="155" x="582" y="1045.1426">InternetAddress address</text><ellipse cx="573" cy="1058.5234" fill="none" rx="3" ry="3" style="stroke:#038048;stroke-width:1.0;"/><text fill="#000000" font-family="sans-serif" font-size="14" lengthAdjust="spacing" textLength="200" x="582" y="1062.752">InternetAddress remoteAddress</text><ellipse cx="573" cy="1076.1328" fill="none" rx="3" ry="3" style="stroke:#038048;stroke-width:1.0;"/><text fill="#000000" font-family="sans-serif" font-size="14" lengthAdjust="spacing" textLength="44" x="582" y="1080.3613">int port</text><ellipse cx="573" cy="1093.7422" fill="none" rx="3" ry="3" style="stroke:#038048;stroke-width:1.0;"/><text fill="#000000" font-family="sans-serif" font-size="14" lengthAdjust="spacing" textLength="89" x="582" y="1097.9707">int remotePort</text><line style="stroke:#181818;stroke-width:0.5;" x1="563" x2="787" y1="1105.0469" y2="1105.0469"/><ellipse cx="573" cy="1119.3516" fill="#84BE84" rx="3" ry="3" style="stroke:#038048;stroke-width:1.0;"/><text fill="#000000" font-family="sans-serif" font-size="14" lengthAdjust="spacing" textLength="148" x="582" y="1123.5801">Future&lt;void&gt; connect()</text><ellipse cx="573" cy="1136.9609" fill="#84BE84" rx="3" ry="3" style="stroke:#038048;stroke-width:1.0;"/><text fill="#000000" font-family="sans-serif" font-size="14" lengthAdjust="spacing" textLength="131" x="582" y="1141.1895">Future&lt;void&gt; close()</text><ellipse cx="573" cy="1154.5703" fill="#84BE84" rx="3" ry="3" style="stroke:#038048;stroke-width:1.0;"/><text fill="#000000" font-family="sans-serif" font-size="14" lengthAdjust="spacing" textLength="145" x="582" y="1158.7988">Future&lt;void&gt; destroy()</text><ellipse cx="573" cy="1172.1797" fill="#84BE84" rx="3" ry="3" style="stroke:#038048;stroke-width:1.0;"/><text fill="#000000" font-family="sans-serif" font-size="14" lengthAdjust="spacing" textLength="99" x="582" y="1176.4082">dynamic listen()</text><ellipse cx="573" cy="1189.7891" fill="#84BE84" rx="3" ry="3" style="stroke:#038048;stroke-width:1.0;"/><text fill="#000000" font-family="sans-serif" font-size="14" lengthAdjust="spacing" textLength="154" x="582" y="1194.0176">dynamic sendMessage()</text></g><!--MD5=[76332cc26df2febff4f0f9728ec1cc64]
class dart::io::Socket--><g id="elem_dart::io::Socket"><rect fill="#F1F1F1" height="48" id="dart::io::Socket" rx="2.5" ry="2.5" style="stroke:#181818;stroke-width:0.5;" width="75" x="706.5" y="1277"/><ellipse cx="721.5" cy="1293" fill="#ADD1B2" rx="11" ry="11" style="stroke:#181818;stroke-width:1.0;"/><path d="M724.2656,1288.875 Q724.4219,1288.6563 724.6094,1288.5469 Q724.7969,1288.4375 725.0156,1288.4375 Q725.3906,1288.4375 725.625,1288.7031 Q725.8594,1288.9531 725.8594,1289.5625 L725.8594,1291.0156 Q725.8594,1291.625 725.625,1291.8906 Q725.3906,1292.1563 725.0156,1292.1563 Q724.6719,1292.1563 724.4688,1291.9531 Q724.2656,1291.7656 724.1563,1291.25 Q724.1094,1290.8906 723.9219,1290.7031 Q723.5938,1290.3281 722.9844,1290.1094 Q722.375,1289.8906 721.75,1289.8906 Q720.9844,1289.8906 720.3438,1290.2188 Q719.7188,1290.5469 719.2188,1291.2969 Q718.7344,1292.0469 718.7344,1293.0781 L718.7344,1294.1719 Q718.7344,1295.4063 719.625,1296.2344 Q720.5156,1297.0469 722.1094,1297.0469 Q723.0469,1297.0469 723.7031,1296.7969 Q724.0938,1296.6406 724.5156,1296.2031 Q724.7813,1295.9375 724.9219,1295.8594 Q725.0781,1295.7813 725.2813,1295.7813 Q725.6094,1295.7813 725.8594,1296.0469 Q726.125,1296.2969 726.125,1296.6406 Q726.125,1296.9844 725.7813,1297.3906 Q725.2813,1297.9688 724.4844,1298.2969 Q723.4063,1298.75 722.1094,1298.75 Q720.5938,1298.75 719.3906,1298.125 Q718.4063,1297.625 717.7188,1296.5625 Q717.0313,1295.4844 717.0313,1294.2031 L717.0313,1293.0469 Q717.0313,1291.7188 717.6406,1290.5781 Q718.2656,1289.4219 719.3594,1288.8125 Q720.4531,1288.1875 721.6875,1288.1875 Q722.4219,1288.1875 723.0625,1288.3594 Q723.7188,1288.5156 724.2656,1288.875 Z " fill="#000000"/><text fill="#000000" font-family="sans-serif" font-size="14" lengthAdjust="spacing" textLength="43" x="735.5" y="1298.7285">Socket</text><line style="stroke:#181818;stroke-width:0.5;" x1="707.5" x2="780.5" y1="1309" y2="1309"/><line style="stroke:#181818;stroke-width:0.5;" x1="707.5" x2="780.5" y1="1317" y2="1317"/></g><!--MD5=[12b08d3031721cc20caf19eadbc4e110]
class dart::io::InternetAddress--><g id="elem_dart::io::InternetAddress"><rect fill="#F1F1F1" height="48" id="dart::io::InternetAddress" rx="2.5" ry="2.5" style="stroke:#181818;stroke-width:0.5;" width="132" x="539" y="1277"/><ellipse cx="554" cy="1293" fill="#ADD1B2" rx="11" ry="11" style="stroke:#181818;stroke-width:1.0;"/><path d="M556.7656,1288.875 Q556.9219,1288.6563 557.1094,1288.5469 Q557.2969,1288.4375 557.5156,1288.4375 Q557.8906,1288.4375 558.125,1288.7031 Q558.3594,1288.9531 558.3594,1289.5625 L558.3594,1291.0156 Q558.3594,1291.625 558.125,1291.8906 Q557.8906,1292.1563 557.5156,1292.1563 Q557.1719,1292.1563 556.9688,1291.9531 Q556.7656,1291.7656 556.6563,1291.25 Q556.6094,1290.8906 556.4219,1290.7031 Q556.0938,1290.3281 555.4844,1290.1094 Q554.875,1289.8906 554.25,1289.8906 Q553.4844,1289.8906 552.8438,1290.2188 Q552.2188,1290.5469 551.7188,1291.2969 Q551.2344,1292.0469 551.2344,1293.0781 L551.2344,1294.1719 Q551.2344,1295.4063 552.125,1296.2344 Q553.0156,1297.0469 554.6094,1297.0469 Q555.5469,1297.0469 556.2031,1296.7969 Q556.5938,1296.6406 557.0156,1296.2031 Q557.2813,1295.9375 557.4219,1295.8594 Q557.5781,1295.7813 557.7813,1295.7813 Q558.1094,1295.7813 558.3594,1296.0469 Q558.625,1296.2969 558.625,1296.6406 Q558.625,1296.9844 558.2813,1297.3906 Q557.7813,1297.9688 556.9844,1298.2969 Q555.9063,1298.75 554.6094,1298.75 Q553.0938,1298.75 551.8906,1298.125 Q550.9063,1297.625 550.2188,1296.5625 Q549.5313,1295.4844 549.5313,1294.2031 L549.5313,1293.0469 Q549.5313,1291.7188 550.1406,1290.5781 Q550.7656,1289.4219 551.8594,1288.8125 Q552.9531,1288.1875 554.1875,1288.1875 Q554.9219,1288.1875 555.5625,1288.3594 Q556.2188,1288.5156 556.7656,1288.875 Z " fill="#000000"/><text fill="#000000" font-family="sans-serif" font-size="14" lengthAdjust="spacing" textLength="100" x="568" y="1298.7285">InternetAddress</text><line style="stroke:#181818;stroke-width:0.5;" x1="540" x2="670" y1="1309" y2="1309"/><line style="stroke:#181818;stroke-width:0.5;" x1="540" x2="670" y1="1317" y2="1317"/></g><!--MD5=[5db8512558180a1f69c0b1077ad1550b]
class sprint1_smart_device::model::waste_service::store_request.dart::StoreRequest--><g id="elem_sprint1_smart_device::model::waste_service::store_request.dart::StoreRequest"><rect codeLine="41" fill="#F1F1F1" height="153.6563" id="sprint1_smart_device::model::waste_service::store_request.dart::StoreRequest" rx="2.5" ry="2.5" style="stroke:#181818;stroke-width:0.5;" width="221" x="1783.5" y="315.5"/><ellipse cx="1846.25" cy="331.5" fill="#ADD1B2" rx="11" ry="11" style="stroke:#181818;stroke-width:1.0;"/><path d="M1849.0156,327.375 Q1849.1719,327.1563 1849.3594,327.0469 Q1849.5469,326.9375 1849.7656,326.9375 Q1850.1406,326.9375 1850.375,327.2031 Q1850.6094,327.4531 1850.6094,328.0625 L1850.6094,329.5156 Q1850.6094,330.125 1850.375,330.3906 Q1850.1406,330.6563 1849.7656,330.6563 Q1849.4219,330.6563 1849.2188,330.4531 Q1849.0156,330.2656 1848.9063,329.75 Q1848.8594,329.3906 1848.6719,329.2031 Q1848.3438,328.8281 1847.7344,328.6094 Q1847.125,328.3906 1846.5,328.3906 Q1845.7344,328.3906 1845.0938,328.7188 Q1844.4688,329.0469 1843.9688,329.7969 Q1843.4844,330.5469 1843.4844,331.5781 L1843.4844,332.6719 Q1843.4844,333.9063 1844.375,334.7344 Q1845.2656,335.5469 1846.8594,335.5469 Q1847.7969,335.5469 1848.4531,335.2969 Q1848.8438,335.1406 1849.2656,334.7031 Q1849.5313,334.4375 1849.6719,334.3594 Q1849.8281,334.2813 1850.0313,334.2813 Q1850.3594,334.2813 1850.6094,334.5469 Q1850.875,334.7969 1850.875,335.1406 Q1850.875,335.4844 1850.5313,335.8906 Q1850.0313,336.4688 1849.2344,336.7969 Q1848.1563,337.25 1846.8594,337.25 Q1845.3438,337.25 1844.1406,336.625 Q1843.1563,336.125 1842.4688,335.0625 Q1841.7813,333.9844 1841.7813,332.7031 L1841.7813,331.5469 Q1841.7813,330.2188 1842.3906,329.0781 Q1843.0156,327.9219 1844.1094,327.3125 Q1845.2031,326.6875 1846.4375,326.6875 Q1847.1719,326.6875 1847.8125,326.8594 Q1848.4688,327.0156 1849.0156,327.375 Z " fill="#000000"/><text fill="#000000" font-family="sans-serif" font-size="14" lengthAdjust="spacing" textLength="87" x="1866.75" y="337.2285">StoreRequest</text><line style="stroke:#181818;stroke-width:0.5;" x1="1784.5" x2="2003.5" y1="347.5" y2="347.5"/><ellipse cx="1794.5" cy="361.8047" fill="none" rx="3" ry="3" style="stroke:#038048;stroke-width:1.0;"/><text fill="#000000" font-family="sans-serif" font-size="14" lengthAdjust="spacing" textLength="144" x="1803.5" y="366.0332">WasteType wasteType</text><ellipse cx="1794.5" cy="379.4141" fill="none" rx="3" ry="3" style="stroke:#038048;stroke-width:1.0;"/><text fill="#000000" font-family="sans-serif" font-size="14" lengthAdjust="spacing" textLength="127" x="1803.5" y="383.6426">double wasteWeight</text><line style="stroke:#181818;stroke-width:0.5;" x1="1784.5" x2="2003.5" y1="390.7188" y2="390.7188"/><ellipse cx="1794.5" cy="405.0234" fill="#84BE84" rx="3" ry="3" style="stroke:#038048;stroke-width:1.0;"/><text fill="#000000" font-family="sans-serif" font-size="14" lengthAdjust="spacing" text-decoration="underline" textLength="195" x="1803.5" y="409.252">Map&lt;String, dynamic&gt; toJson()</text><ellipse cx="1794.5" cy="422.6328" fill="#84BE84" rx="3" ry="3" style="stroke:#038048;stroke-width:1.0;"/><text fill="#000000" font-family="sans-serif" font-size="14" lengthAdjust="spacing" textLength="129" x="1803.5" y="426.8613">String toJsonString()</text><ellipse cx="1794.5" cy="440.2422" fill="#84BE84" rx="3" ry="3" style="stroke:#038048;stroke-width:1.0;"/><text fill="#000000" font-family="sans-serif" font-size="14" lengthAdjust="spacing" textLength="129" x="1803.5" y="444.4707">String toQAKString()</text><ellipse cx="1794.5" cy="457.8516" fill="#84BE84" rx="3" ry="3" style="stroke:#038048;stroke-width:1.0;"/><text fill="#000000" font-family="sans-serif" font-size="14" lengthAdjust="spacing" textLength="83" x="1803.5" y="462.0801">bool equals()</text></g><!--MD5=[b4d3d74812be2ebd56fd84776276a7f1]
class sprint1_smart_device::model::waste_service::waste_type.dart::WasteType--><g id="elem_sprint1_smart_device::model::waste_service::waste_type.dart::WasteType"><rect codeLine="52" fill="#F1F1F1" height="118.4375" id="sprint1_smart_device::model::waste_service::waste_type.dart::WasteType" rx="2.5" ry="2.5" style="stroke:#181818;stroke-width:0.5;" width="181" x="1803.5" y="739"/><ellipse cx="1853.75" cy="755" fill="#ADD1B2" rx="11" ry="11" style="stroke:#181818;stroke-width:1.0;"/><path d="M1856.5156,750.875 Q1856.6719,750.6563 1856.8594,750.5469 Q1857.0469,750.4375 1857.2656,750.4375 Q1857.6406,750.4375 1857.875,750.7031 Q1858.1094,750.9531 1858.1094,751.5625 L1858.1094,753.0156 Q1858.1094,753.625 1857.875,753.8906 Q1857.6406,754.1563 1857.2656,754.1563 Q1856.9219,754.1563 1856.7188,753.9531 Q1856.5156,753.7656 1856.4063,753.25 Q1856.3594,752.8906 1856.1719,752.7031 Q1855.8438,752.3281 1855.2344,752.1094 Q1854.625,751.8906 1854,751.8906 Q1853.2344,751.8906 1852.5938,752.2188 Q1851.9688,752.5469 1851.4688,753.2969 Q1850.9844,754.0469 1850.9844,755.0781 L1850.9844,756.1719 Q1850.9844,757.4063 1851.875,758.2344 Q1852.7656,759.0469 1854.3594,759.0469 Q1855.2969,759.0469 1855.9531,758.7969 Q1856.3438,758.6406 1856.7656,758.2031 Q1857.0313,757.9375 1857.1719,757.8594 Q1857.3281,757.7813 1857.5313,757.7813 Q1857.8594,757.7813 1858.1094,758.0469 Q1858.375,758.2969 1858.375,758.6406 Q1858.375,758.9844 1858.0313,759.3906 Q1857.5313,759.9688 1856.7344,760.2969 Q1855.6563,760.75 1854.3594,760.75 Q1852.8438,760.75 1851.6406,760.125 Q1850.6563,759.625 1849.9688,758.5625 Q1849.2813,757.4844 1849.2813,756.2031 L1849.2813,755.0469 Q1849.2813,753.7188 1849.8906,752.5781 Q1850.5156,751.4219 1851.6094,750.8125 Q1852.7031,750.1875 1853.9375,750.1875 Q1854.6719,750.1875 1855.3125,750.3594 Q1855.9688,750.5156 1856.5156,750.875 Z " fill="#000000"/><text fill="#000000" font-family="sans-serif" font-size="14" lengthAdjust="spacing" textLength="72" x="1874.25" y="760.7285">WasteType</text><line style="stroke:#181818;stroke-width:0.5;" x1="1804.5" x2="1983.5" y1="771" y2="771"/><ellipse cx="1814.5" cy="785.3047" fill="none" rx="3" ry="3" style="stroke:#038048;stroke-width:1.0;"/><text fill="#000000" font-family="sans-serif" font-size="14" lengthAdjust="spacing" textLength="52" x="1823.5" y="789.5332">int index</text><ellipse cx="1814.5" cy="802.9141" fill="none" rx="3" ry="3" style="stroke:#038048;stroke-width:1.0;"/><text fill="#000000" font-family="sans-serif" font-size="14" lengthAdjust="spacing" text-decoration="underline" textLength="155" x="1823.5" y="807.1426">List&lt;WasteType&gt; values</text><ellipse cx="1814.5" cy="820.5234" fill="none" rx="3" ry="3" style="stroke:#038048;stroke-width:1.0;"/><text fill="#000000" font-family="sans-serif" font-size="14" lengthAdjust="spacing" text-decoration="underline" textLength="133" x="1823.5" y="824.752">WasteType PLASTIC</text><ellipse cx="1814.5" cy="838.1328" fill="none" rx="3" ry="3" style="stroke:#038048;stroke-width:1.0;"/><text fill="#000000" font-family="sans-serif" font-size="14" lengthAdjust="spacing" text-decoration="underline" textLength="122" x="1823.5" y="842.3613">WasteType GLASS</text><line style="stroke:#181818;stroke-width:0.5;" x1="1804.5" x2="1983.5" y1="849.4375" y2="849.4375"/></g><!--MD5=[d6fa34c106194b2f1b35263c212eef4e]
class dart::core::Enum--><g id="elem_dart::core::Enum"><rect fill="#F1F1F1" height="48" id="dart::core::Enum" rx="2.5" ry="2.5" style="stroke:#181818;stroke-width:0.5;" width="68" x="2107" y="368.5"/><ellipse cx="2122" cy="384.5" fill="#ADD1B2" rx="11" ry="11" style="stroke:#181818;stroke-width:1.0;"/><path d="M2124.7656,380.375 Q2124.9219,380.1563 2125.1094,380.0469 Q2125.2969,379.9375 2125.5156,379.9375 Q2125.8906,379.9375 2126.125,380.2031 Q2126.3594,380.4531 2126.3594,381.0625 L2126.3594,382.5156 Q2126.3594,383.125 2126.125,383.3906 Q2125.8906,383.6563 2125.5156,383.6563 Q2125.1719,383.6563 2124.9688,383.4531 Q2124.7656,383.2656 2124.6563,382.75 Q2124.6094,382.3906 2124.4219,382.2031 Q2124.0938,381.8281 2123.4844,381.6094 Q2122.875,381.3906 2122.25,381.3906 Q2121.4844,381.3906 2120.8438,381.7188 Q2120.2188,382.0469 2119.7188,382.7969 Q2119.2344,383.5469 2119.2344,384.5781 L2119.2344,385.6719 Q2119.2344,386.9063 2120.125,387.7344 Q2121.0156,388.5469 2122.6094,388.5469 Q2123.5469,388.5469 2124.2031,388.2969 Q2124.5938,388.1406 2125.0156,387.7031 Q2125.2813,387.4375 2125.4219,387.3594 Q2125.5781,387.2813 2125.7813,387.2813 Q2126.1094,387.2813 2126.3594,387.5469 Q2126.625,387.7969 2126.625,388.1406 Q2126.625,388.4844 2126.2813,388.8906 Q2125.7813,389.4688 2124.9844,389.7969 Q2123.9063,390.25 2122.6094,390.25 Q2121.0938,390.25 2119.8906,389.625 Q2118.9063,389.125 2118.2188,388.0625 Q2117.5313,386.9844 2117.5313,385.7031 L2117.5313,384.5469 Q2117.5313,383.2188 2118.1406,382.0781 Q2118.7656,380.9219 2119.8594,380.3125 Q2120.9531,379.6875 2122.1875,379.6875 Q2122.9219,379.6875 2123.5625,379.8594 Q2124.2188,380.0156 2124.7656,380.375 Z " fill="#000000"/><text fill="#000000" font-family="sans-serif" font-size="14" lengthAdjust="spacing" textLength="36" x="2136" y="390.2285">Enum</text><line style="stroke:#181818;stroke-width:0.5;" x1="2108" x2="2174" y1="400.5" y2="400.5"/><line style="stroke:#181818;stroke-width:0.5;" x1="2108" x2="2174" y1="408.5" y2="408.5"/></g><!--MD5=[5870644701b33e5de5e5d440e6cd76cf]
class sprint1_smart_device::view::view_home.dart::ViewHome--><g id="elem_sprint1_smart_device::view::view_home.dart::ViewHome"><rect codeLine="62" fill="#F1F1F1" height="65.6094" id="sprint1_smart_device::view::view_home.dart::ViewHome" rx="2.5" ry="2.5" style="stroke:#181818;stroke-width:0.5;" width="227" x="22.5" y="359.5"/><ellipse cx="99.25" cy="375.5" fill="#ADD1B2" rx="11" ry="11" style="stroke:#181818;stroke-width:1.0;"/><path d="M102.0156,371.375 Q102.1719,371.1563 102.3594,371.0469 Q102.5469,370.9375 102.7656,370.9375 Q103.1406,370.9375 103.375,371.2031 Q103.6094,371.4531 103.6094,372.0625 L103.6094,373.5156 Q103.6094,374.125 103.375,374.3906 Q103.1406,374.6563 102.7656,374.6563 Q102.4219,374.6563 102.2188,374.4531 Q102.0156,374.2656 101.9063,373.75 Q101.8594,373.3906 101.6719,373.2031 Q101.3438,372.8281 100.7344,372.6094 Q100.125,372.3906 99.5,372.3906 Q98.7344,372.3906 98.0938,372.7188 Q97.4688,373.0469 96.9688,373.7969 Q96.4844,374.5469 96.4844,375.5781 L96.4844,376.6719 Q96.4844,377.9063 97.375,378.7344 Q98.2656,379.5469 99.8594,379.5469 Q100.7969,379.5469 101.4531,379.2969 Q101.8438,379.1406 102.2656,378.7031 Q102.5313,378.4375 102.6719,378.3594 Q102.8281,378.2813 103.0313,378.2813 Q103.3594,378.2813 103.6094,378.5469 Q103.875,378.7969 103.875,379.1406 Q103.875,379.4844 103.5313,379.8906 Q103.0313,380.4688 102.2344,380.7969 Q101.1563,381.25 99.8594,381.25 Q98.3438,381.25 97.1406,380.625 Q96.1563,380.125 95.4688,379.0625 Q94.7813,377.9844 94.7813,376.7031 L94.7813,375.5469 Q94.7813,374.2188 95.3906,373.0781 Q96.0156,371.9219 97.1094,371.3125 Q98.2031,370.6875 99.4375,370.6875 Q100.1719,370.6875 100.8125,370.8594 Q101.4688,371.0156 102.0156,371.375 Z " fill="#000000"/><text fill="#000000" font-family="sans-serif" font-size="14" lengthAdjust="spacing" textLength="65" x="119.75" y="381.2285">ViewHome</text><line style="stroke:#181818;stroke-width:0.5;" x1="23.5" x2="248.5" y1="391.5" y2="391.5"/><line style="stroke:#181818;stroke-width:0.5;" x1="23.5" x2="248.5" y1="399.5" y2="399.5"/><ellipse cx="33.5" cy="413.8047" fill="#84BE84" rx="3" ry="3" style="stroke:#038048;stroke-width:1.0;"/><text fill="#000000" font-family="sans-serif" font-size="14" lengthAdjust="spacing" textLength="201" x="42.5" y="418.0332">State&lt;ViewHome&gt; createState()</text></g><!--MD5=[72365fafb524928943b92054672ec3e6]
class sprint1_smart_device::view::view_home.dart::_ViewHomeState--><g id="elem_sprint1_smart_device::view::view_home.dart::_ViewHomeState"><rect codeLine="68" fill="#F1F1F1" height="276.9219" id="sprint1_smart_device::view::view_home.dart::_ViewHomeState" rx="2.5" ry="2.5" style="stroke:#181818;stroke-width:0.5;" width="309" x="284.5" y="254"/><ellipse cx="381.75" cy="270" fill="#ADD1B2" rx="11" ry="11" style="stroke:#181818;stroke-width:1.0;"/><path d="M384.5156,265.875 Q384.6719,265.6563 384.8594,265.5469 Q385.0469,265.4375 385.2656,265.4375 Q385.6406,265.4375 385.875,265.7031 Q386.1094,265.9531 386.1094,266.5625 L386.1094,268.0156 Q386.1094,268.625 385.875,268.8906 Q385.6406,269.1563 385.2656,269.1563 Q384.9219,269.1563 384.7188,268.9531 Q384.5156,268.7656 384.4063,268.25 Q384.3594,267.8906 384.1719,267.7031 Q383.8438,267.3281 383.2344,267.1094 Q382.625,266.8906 382,266.8906 Q381.2344,266.8906 380.5938,267.2188 Q379.9688,267.5469 379.4688,268.2969 Q378.9844,269.0469 378.9844,270.0781 L378.9844,271.1719 Q378.9844,272.4063 379.875,273.2344 Q380.7656,274.0469 382.3594,274.0469 Q383.2969,274.0469 383.9531,273.7969 Q384.3438,273.6406 384.7656,273.2031 Q385.0313,272.9375 385.1719,272.8594 Q385.3281,272.7813 385.5313,272.7813 Q385.8594,272.7813 386.1094,273.0469 Q386.375,273.2969 386.375,273.6406 Q386.375,273.9844 386.0313,274.3906 Q385.5313,274.9688 384.7344,275.2969 Q383.6563,275.75 382.3594,275.75 Q380.8438,275.75 379.6406,275.125 Q378.6563,274.625 377.9688,273.5625 Q377.2813,272.4844 377.2813,271.2031 L377.2813,270.0469 Q377.2813,268.7188 377.8906,267.5781 Q378.5156,266.4219 379.6094,265.8125 Q380.7031,265.1875 381.9375,265.1875 Q382.6719,265.1875 383.3125,265.3594 Q383.9688,265.5156 384.5156,265.875 Z " fill="#000000"/><text fill="#000000" font-family="sans-serif" font-size="14" lengthAdjust="spacing" textLength="106" x="402.25" y="275.7285">_ViewHomeState</text><line style="stroke:#181818;stroke-width:0.5;" x1="285.5" x2="592.5" y1="286" y2="286"/><rect fill="none" height="6" style="stroke:#C82930;stroke-width:1.0;" width="6" x="292.5" y="297.3047"/><text fill="#000000" font-family="sans-serif" font-size="14" lengthAdjust="spacing" textLength="283" x="304.5" y="304.5332">GlobalKey&lt;FormState&gt; _formKeyConnection</text><rect fill="none" height="6" style="stroke:#C82930;stroke-width:1.0;" width="6" x="292.5" y="314.9141"/><text fill="#000000" font-family="sans-serif" font-size="14" lengthAdjust="spacing" textLength="280" x="304.5" y="322.1426">TextEditingController _textControllerAddress</text><rect fill="none" height="6" style="stroke:#C82930;stroke-width:1.0;" width="6" x="292.5" y="332.5234"/><text fill="#000000" font-family="sans-serif" font-size="14" lengthAdjust="spacing" textLength="254" x="304.5" y="339.752">TextEditingController _textControllerPort</text><rect fill="none" height="6" style="stroke:#C82930;stroke-width:1.0;" width="6" x="292.5" y="350.1328"/><text fill="#000000" font-family="sans-serif" font-size="14" lengthAdjust="spacing" textLength="247" x="304.5" y="357.3613">ClientConnection _tcpClientConnection</text><rect fill="none" height="6" style="stroke:#C82930;stroke-width:1.0;" width="6" x="292.5" y="367.7422"/><text fill="#000000" font-family="sans-serif" font-size="14" lengthAdjust="spacing" textLength="100" x="304.5" y="374.9707">bool _isLoading</text><rect fill="none" height="6" style="stroke:#C82930;stroke-width:1.0;" width="6" x="292.5" y="385.3516"/><text fill="#000000" font-family="sans-serif" font-size="14" lengthAdjust="spacing" textLength="70" x="304.5" y="392.5801">bool _error</text><rect fill="none" height="6" style="stroke:#C82930;stroke-width:1.0;" width="6" x="292.5" y="402.9609"/><text fill="#000000" font-family="sans-serif" font-size="14" lengthAdjust="spacing" textLength="107" x="304.5" y="410.1895">String _errorTitle</text><rect fill="none" height="6" style="stroke:#C82930;stroke-width:1.0;" width="6" x="292.5" y="420.5703"/><text fill="#000000" font-family="sans-serif" font-size="14" lengthAdjust="spacing" textLength="137" x="304.5" y="427.7988">String _errorMessage</text><line style="stroke:#181818;stroke-width:0.5;" x1="285.5" x2="592.5" y1="434.875" y2="434.875"/><rect fill="#F24D5C" height="6" style="stroke:#C82930;stroke-width:1.0;" width="6" x="292.5" y="446.1797"/><text fill="#000000" font-family="sans-serif" font-size="14" lengthAdjust="spacing" textLength="149" x="304.5" y="453.4082">bool _checkIPaddress()</text><rect fill="#F24D5C" height="6" style="stroke:#C82930;stroke-width:1.0;" width="6" x="292.5" y="463.7891"/><text fill="#000000" font-family="sans-serif" font-size="14" lengthAdjust="spacing" textLength="112" x="304.5" y="471.0176">bool _checkPort()</text><rect fill="#F24D5C" height="6" style="stroke:#C82930;stroke-width:1.0;" width="6" x="292.5" y="481.3984"/><text fill="#000000" font-family="sans-serif" font-size="14" lengthAdjust="spacing" textLength="98" x="304.5" y="488.627">void _connect()</text><rect fill="#F24D5C" height="6" style="stroke:#C82930;stroke-width:1.0;" width="6" x="292.5" y="499.0078"/><text fill="#000000" font-family="sans-serif" font-size="14" lengthAdjust="spacing" textLength="149" x="304.5" y="506.2363">void _showAlertDialog()</text><ellipse cx="295.5" cy="519.6172" fill="#84BE84" rx="3" ry="3" style="stroke:#038048;stroke-width:1.0;"/><text fill="#000000" font-family="sans-serif" font-size="14" lengthAdjust="spacing" textLength="88" x="304.5" y="523.8457">Widget build()</text></g><!--MD5=[40b395e1d1237e82679a917749c88d40]
class flutter::src::widgets::editable_text.dart::TextEditingController--><g id="elem_flutter::src::widgets::editable_text.dart::TextEditingController"><rect fill="#F1F1F1" height="48" id="flutter::src::widgets::editable_text.dart::TextEditingController" rx="2.5" ry="2.5" style="stroke:#181818;stroke-width:0.5;" width="164" x="236" y="774"/><ellipse cx="251" cy="790" fill="#ADD1B2" rx="11" ry="11" style="stroke:#181818;stroke-width:1.0;"/><path d="M253.7656,785.875 Q253.9219,785.6563 254.1094,785.5469 Q254.2969,785.4375 254.5156,785.4375 Q254.8906,785.4375 255.125,785.7031 Q255.3594,785.9531 255.3594,786.5625 L255.3594,788.0156 Q255.3594,788.625 255.125,788.8906 Q254.8906,789.1563 254.5156,789.1563 Q254.1719,789.1563 253.9688,788.9531 Q253.7656,788.7656 253.6563,788.25 Q253.6094,787.8906 253.4219,787.7031 Q253.0938,787.3281 252.4844,787.1094 Q251.875,786.8906 251.25,786.8906 Q250.4844,786.8906 249.8438,787.2188 Q249.2188,787.5469 248.7188,788.2969 Q248.2344,789.0469 248.2344,790.0781 L248.2344,791.1719 Q248.2344,792.4063 249.125,793.2344 Q250.0156,794.0469 251.6094,794.0469 Q252.5469,794.0469 253.2031,793.7969 Q253.5938,793.6406 254.0156,793.2031 Q254.2813,792.9375 254.4219,792.8594 Q254.5781,792.7813 254.7813,792.7813 Q255.1094,792.7813 255.3594,793.0469 Q255.625,793.2969 255.625,793.6406 Q255.625,793.9844 255.2813,794.3906 Q254.7813,794.9688 253.9844,795.2969 Q252.9063,795.75 251.6094,795.75 Q250.0938,795.75 248.8906,795.125 Q247.9063,794.625 247.2188,793.5625 Q246.5313,792.4844 246.5313,791.2031 L246.5313,790.0469 Q246.5313,788.7188 247.1406,787.5781 Q247.7656,786.4219 248.8594,785.8125 Q249.9531,785.1875 251.1875,785.1875 Q251.9219,785.1875 252.5625,785.3594 Q253.2188,785.5156 253.7656,785.875 Z " fill="#000000"/><text fill="#000000" font-family="sans-serif" font-size="14" lengthAdjust="spacing" textLength="132" x="265" y="795.7285">TextEditingController</text><line style="stroke:#181818;stroke-width:0.5;" x1="237" x2="399" y1="806" y2="806"/><line style="stroke:#181818;stroke-width:0.5;" x1="237" x2="399" y1="814" y2="814"/></g><!--MD5=[5795e13cb1a351c65417eb5bc4773520]
class sprint1_smart_device::view::view_request.dart::ViewRequest--><g id="elem_sprint1_smart_device::view::view_request.dart::ViewRequest"><rect codeLine="89" fill="#F1F1F1" height="100.8281" id="sprint1_smart_device::view::view_request.dart::ViewRequest" rx="2.5" ry="2.5" style="stroke:#181818;stroke-width:0.5;" width="309" x="650.5" y="342"/><ellipse cx="759.75" cy="358" fill="#ADD1B2" rx="11" ry="11" style="stroke:#181818;stroke-width:1.0;"/><path d="M762.5156,353.875 Q762.6719,353.6563 762.8594,353.5469 Q763.0469,353.4375 763.2656,353.4375 Q763.6406,353.4375 763.875,353.7031 Q764.1094,353.9531 764.1094,354.5625 L764.1094,356.0156 Q764.1094,356.625 763.875,356.8906 Q763.6406,357.1563 763.2656,357.1563 Q762.9219,357.1563 762.7188,356.9531 Q762.5156,356.7656 762.4063,356.25 Q762.3594,355.8906 762.1719,355.7031 Q761.8438,355.3281 761.2344,355.1094 Q760.625,354.8906 760,354.8906 Q759.2344,354.8906 758.5938,355.2188 Q757.9688,355.5469 757.4688,356.2969 Q756.9844,357.0469 756.9844,358.0781 L756.9844,359.1719 Q756.9844,360.4063 757.875,361.2344 Q758.7656,362.0469 760.3594,362.0469 Q761.2969,362.0469 761.9531,361.7969 Q762.3438,361.6406 762.7656,361.2031 Q763.0313,360.9375 763.1719,360.8594 Q763.3281,360.7813 763.5313,360.7813 Q763.8594,360.7813 764.1094,361.0469 Q764.375,361.2969 764.375,361.6406 Q764.375,361.9844 764.0313,362.3906 Q763.5313,362.9688 762.7344,363.2969 Q761.6563,363.75 760.3594,363.75 Q758.8438,363.75 757.6406,363.125 Q756.6563,362.625 755.9688,361.5625 Q755.2813,360.4844 755.2813,359.2031 L755.2813,358.0469 Q755.2813,356.7188 755.8906,355.5781 Q756.5156,354.4219 757.6094,353.8125 Q758.7031,353.1875 759.9375,353.1875 Q760.6719,353.1875 761.3125,353.3594 Q761.9688,353.5156 762.5156,353.875 Z " fill="#000000"/><text fill="#000000" font-family="sans-serif" font-size="14" lengthAdjust="spacing" textLength="82" x="780.25" y="363.7285">ViewRequest</text><line style="stroke:#181818;stroke-width:0.5;" x1="651.5" x2="958.5" y1="374" y2="374"/><ellipse cx="661.5" cy="388.3047" fill="none" rx="3" ry="3" style="stroke:#038048;stroke-width:1.0;"/><text fill="#000000" font-family="sans-serif" font-size="14" lengthAdjust="spacing" textLength="181" x="670.5" y="392.5332">ClientConnection connection</text><line style="stroke:#181818;stroke-width:0.5;" x1="651.5" x2="958.5" y1="399.6094" y2="399.6094"/><ellipse cx="661.5" cy="413.9141" fill="#84BE84" rx="3" ry="3" style="stroke:#038048;stroke-width:1.0;"/><text fill="#000000" font-family="sans-serif" font-size="14" lengthAdjust="spacing" textLength="283" x="670.5" y="418.1426">dynamic Function(String, String) notifyParent</text><ellipse cx="661.5" cy="431.5234" fill="#84BE84" rx="3" ry="3" style="stroke:#038048;stroke-width:1.0;"/><text fill="#000000" font-family="sans-serif" font-size="14" lengthAdjust="spacing" textLength="218" x="670.5" y="435.752">State&lt;ViewRequest&gt; createState()</text></g><!--MD5=[f1e9aaae1bf215ad139c8f67de0cb2a6]
class sprint1_smart_device::view::view_request.dart::_ViewRequestState--><g id="elem_sprint1_smart_device::view::view_request.dart::_ViewRequestState"><rect codeLine="99" fill="#F1F1F1" height="453.0156" id="sprint1_smart_device::view::view_request.dart::_ViewRequestState" rx="2.5" ry="2.5" style="stroke:#181818;stroke-width:0.5;" width="298" x="995" y="166"/><ellipse cx="1078.25" cy="182" fill="#ADD1B2" rx="11" ry="11" style="stroke:#181818;stroke-width:1.0;"/><path d="M1081.0156,177.875 Q1081.1719,177.6563 1081.3594,177.5469 Q1081.5469,177.4375 1081.7656,177.4375 Q1082.1406,177.4375 1082.375,177.7031 Q1082.6094,177.9531 1082.6094,178.5625 L1082.6094,180.0156 Q1082.6094,180.625 1082.375,180.8906 Q1082.1406,181.1563 1081.7656,181.1563 Q1081.4219,181.1563 1081.2188,180.9531 Q1081.0156,180.7656 1080.9063,180.25 Q1080.8594,179.8906 1080.6719,179.7031 Q1080.3438,179.3281 1079.7344,179.1094 Q1079.125,178.8906 1078.5,178.8906 Q1077.7344,178.8906 1077.0938,179.2188 Q1076.4688,179.5469 1075.9688,180.2969 Q1075.4844,181.0469 1075.4844,182.0781 L1075.4844,183.1719 Q1075.4844,184.4063 1076.375,185.2344 Q1077.2656,186.0469 1078.8594,186.0469 Q1079.7969,186.0469 1080.4531,185.7969 Q1080.8438,185.6406 1081.2656,185.2031 Q1081.5313,184.9375 1081.6719,184.8594 Q1081.8281,184.7813 1082.0313,184.7813 Q1082.3594,184.7813 1082.6094,185.0469 Q1082.875,185.2969 1082.875,185.6406 Q1082.875,185.9844 1082.5313,186.3906 Q1082.0313,186.9688 1081.2344,187.2969 Q1080.1563,187.75 1078.8594,187.75 Q1077.3438,187.75 1076.1406,187.125 Q1075.1563,186.625 1074.4688,185.5625 Q1073.7813,184.4844 1073.7813,183.2031 L1073.7813,182.0469 Q1073.7813,180.7188 1074.3906,179.5781 Q1075.0156,178.4219 1076.1094,177.8125 Q1077.2031,177.1875 1078.4375,177.1875 Q1079.1719,177.1875 1079.8125,177.3594 Q1080.4688,177.5156 1081.0156,177.875 Z " fill="#000000"/><text fill="#000000" font-family="sans-serif" font-size="14" lengthAdjust="spacing" textLength="123" x="1098.75" y="187.7285">_ViewRequestState</text><line style="stroke:#181818;stroke-width:0.5;" x1="996" x2="1292" y1="198" y2="198"/><rect fill="none" height="6" style="stroke:#C82930;stroke-width:1.0;" width="6" x="1003" y="209.3047"/><text fill="#000000" font-family="sans-serif" font-size="14" lengthAdjust="spacing" textLength="264" x="1015" y="216.5332">GlobalKey&lt;FormState&gt; _formKeyRequest</text><rect fill="none" height="6" style="stroke:#C82930;stroke-width:1.0;" width="6" x="1003" y="226.9141"/><text fill="#000000" font-family="sans-serif" font-size="14" lengthAdjust="spacing" textLength="272" x="1015" y="234.1426">TextEditingController _textControllerWeight</text><rect fill="none" height="6" style="stroke:#C82930;stroke-width:1.0;" width="6" x="1003" y="244.5234"/><text fill="#000000" font-family="sans-serif" font-size="14" lengthAdjust="spacing" textLength="204" x="1015" y="251.752">ScrollController _scrollController</text><rect fill="none" height="6" style="stroke:#C82930;stroke-width:1.0;" width="6" x="1003" y="262.1328"/><text fill="#000000" font-family="sans-serif" font-size="14" lengthAdjust="spacing" textLength="79" x="1015" y="269.3613">bool _debug</text><rect fill="none" height="6" style="stroke:#C82930;stroke-width:1.0;" width="6" x="1003" y="279.7422"/><text fill="#000000" font-family="sans-serif" font-size="14" lengthAdjust="spacing" textLength="201" x="1015" y="286.9707">WasteType _currentWasteType</text><rect fill="none" height="6" style="stroke:#C82930;stroke-width:1.0;" width="6" x="1003" y="297.3516"/><text fill="#000000" font-family="sans-serif" font-size="14" lengthAdjust="spacing" textLength="80" x="1015" y="304.5801">String _reply</text><rect fill="none" height="6" style="stroke:#C82930;stroke-width:1.0;" width="6" x="1003" y="314.9609"/><text fill="#000000" font-family="sans-serif" font-size="14" lengthAdjust="spacing" textLength="118" x="1015" y="322.1895">bool _waitingReply</text><rect fill="none" height="6" style="stroke:#C82930;stroke-width:1.0;" width="6" x="1003" y="332.5703"/><text fill="#000000" font-family="sans-serif" font-size="14" lengthAdjust="spacing" textLength="121" x="1015" y="339.7988">String _waitingDots</text><rect fill="none" height="6" style="stroke:#C82930;stroke-width:1.0;" width="6" x="1003" y="350.1797"/><text fill="#000000" font-family="sans-serif" font-size="14" lengthAdjust="spacing" textLength="87" x="1015" y="357.4082">Timer? _timer</text><rect fill="none" height="6" style="stroke:#C82930;stroke-width:1.0;" width="6" x="1003" y="367.7891"/><text fill="#000000" font-family="sans-serif" font-size="14" lengthAdjust="spacing" textLength="124" x="1015" y="375.0176">int _timeoutCounter</text><rect fill="none" height="6" style="stroke:#C82930;stroke-width:1.0;" width="6" x="1003" y="385.3984"/><text fill="#000000" font-family="sans-serif" font-size="14" lengthAdjust="spacing" textLength="151" x="1015" y="392.627">List&lt;String&gt; _messages</text><line style="stroke:#181818;stroke-width:0.5;" x1="996" x2="1292" y1="399.7031" y2="399.7031"/><rect fill="#F24D5C" height="6" style="stroke:#C82930;stroke-width:1.0;" width="6" x="1003" y="411.0078"/><text fill="#000000" font-family="sans-serif" font-size="14" lengthAdjust="spacing" textLength="130" x="1015" y="418.2363">bool _checkWeight()</text><rect fill="#F24D5C" height="6" style="stroke:#C82930;stroke-width:1.0;" width="6" x="1003" y="428.6172"/><text fill="#000000" font-family="sans-serif" font-size="14" lengthAdjust="spacing" textLength="124" x="1015" y="435.8457">void _logMessage()</text><rect fill="#F24D5C" height="6" style="stroke:#C82930;stroke-width:1.0;" width="6" x="1003" y="446.2266"/><text fill="#000000" font-family="sans-serif" font-size="14" lengthAdjust="spacing" textLength="150" x="1015" y="453.4551">String _getTimeStamp()</text><rect fill="#F24D5C" height="6" style="stroke:#C82930;stroke-width:1.0;" width="6" x="1003" y="463.8359"/><text fill="#000000" font-family="sans-serif" font-size="14" lengthAdjust="spacing" textLength="224" x="1015" y="471.0645">Future&lt;void&gt; _sendStoreRequest()</text><rect fill="#F24D5C" height="6" style="stroke:#C82930;stroke-width:1.0;" width="6" x="1003" y="481.4453"/><text fill="#000000" font-family="sans-serif" font-size="14" lengthAdjust="spacing" textLength="154" x="1015" y="488.6738">void _messageHandler()</text><rect fill="#F24D5C" height="6" style="stroke:#C82930;stroke-width:1.0;" width="6" x="1003" y="499.0547"/><text fill="#000000" font-family="sans-serif" font-size="14" lengthAdjust="spacing" textLength="128" x="1015" y="506.2832">void _errorHandler()</text><rect fill="#F24D5C" height="6" style="stroke:#C82930;stroke-width:1.0;" width="6" x="1003" y="516.6641"/><text fill="#000000" font-family="sans-serif" font-size="14" lengthAdjust="spacing" textLength="129" x="1015" y="523.8926">void _doneHandler()</text><rect fill="#F24D5C" height="6" style="stroke:#C82930;stroke-width:1.0;" width="6" x="1003" y="534.2734"/><text fill="#000000" font-family="sans-serif" font-size="14" lengthAdjust="spacing" textLength="112" x="1015" y="541.502">void _startTimer()</text><rect fill="#F24D5C" height="6" style="stroke:#C82930;stroke-width:1.0;" width="6" x="1003" y="551.8828"/><text fill="#000000" font-family="sans-serif" font-size="14" lengthAdjust="spacing" textLength="111" x="1015" y="559.1113">void _stopTimer()</text><ellipse cx="1006" cy="572.4922" fill="#84BE84" rx="3" ry="3" style="stroke:#038048;stroke-width:1.0;"/><text fill="#000000" font-family="sans-serif" font-size="14" lengthAdjust="spacing" textLength="200" x="1015" y="576.7207">void didChangeDependencies()</text><ellipse cx="1006" cy="590.1016" fill="#84BE84" rx="3" ry="3" style="stroke:#038048;stroke-width:1.0;"/><text fill="#000000" font-family="sans-serif" font-size="14" lengthAdjust="spacing" textLength="91" x="1015" y="594.3301">void initState()</text><ellipse cx="1006" cy="607.7109" fill="#84BE84" rx="3" ry="3" style="stroke:#038048;stroke-width:1.0;"/><text fill="#000000" font-family="sans-serif" font-size="14" lengthAdjust="spacing" textLength="88" x="1015" y="611.9395">Widget build()</text></g><!--MD5=[fab172e84f301e9bb5b906921b1b62a0]
class null::dynamic Function(String, String)--><g id="elem_null::dynamic Function(String, String)"><rect fill="#F1F1F1" height="48" id="null::dynamic Function(String, String)" rx="2.5" ry="2.5" style="stroke:#181818;stroke-width:0.5;" width="235" x="1408.5" y="774"/><ellipse cx="1423.5" cy="790" fill="#ADD1B2" rx="11" ry="11" style="stroke:#181818;stroke-width:1.0;"/><path d="M1426.2656,785.875 Q1426.4219,785.6563 1426.6094,785.5469 Q1426.7969,785.4375 1427.0156,785.4375 Q1427.3906,785.4375 1427.625,785.7031 Q1427.8594,785.9531 1427.8594,786.5625 L1427.8594,788.0156 Q1427.8594,788.625 1427.625,788.8906 Q1427.3906,789.1563 1427.0156,789.1563 Q1426.6719,789.1563 1426.4688,788.9531 Q1426.2656,788.7656 1426.1563,788.25 Q1426.1094,787.8906 1425.9219,787.7031 Q1425.5938,787.3281 1424.9844,787.1094 Q1424.375,786.8906 1423.75,786.8906 Q1422.9844,786.8906 1422.3438,787.2188 Q1421.7188,787.5469 1421.2188,788.2969 Q1420.7344,789.0469 1420.7344,790.0781 L1420.7344,791.1719 Q1420.7344,792.4063 1421.625,793.2344 Q1422.5156,794.0469 1424.1094,794.0469 Q1425.0469,794.0469 1425.7031,793.7969 Q1426.0938,793.6406 1426.5156,793.2031 Q1426.7813,792.9375 1426.9219,792.8594 Q1427.0781,792.7813 1427.2813,792.7813 Q1427.6094,792.7813 1427.8594,793.0469 Q1428.125,793.2969 1428.125,793.6406 Q1428.125,793.9844 1427.7813,794.3906 Q1427.2813,794.9688 1426.4844,795.2969 Q1425.4063,795.75 1424.1094,795.75 Q1422.5938,795.75 1421.3906,795.125 Q1420.4063,794.625 1419.7188,793.5625 Q1419.0313,792.4844 1419.0313,791.2031 L1419.0313,790.0469 Q1419.0313,788.7188 1419.6406,787.5781 Q1420.2656,786.4219 1421.3594,785.8125 Q1422.4531,785.1875 1423.6875,785.1875 Q1424.4219,785.1875 1425.0625,785.3594 Q1425.7188,785.5156 1426.2656,785.875 Z " fill="#000000"/><text fill="#000000" font-family="sans-serif" font-size="14" lengthAdjust="spacing" textLength="203" x="1437.5" y="795.7285">dynamic Function(String, String)</text><line style="stroke:#181818;stroke-width:0.5;" x1="1409.5" x2="1642.5" y1="806" y2="806"/><line style="stroke:#181818;stroke-width:0.5;" x1="1409.5" x2="1642.5" y1="814" y2="814"/></g><!--MD5=[136102366341dcd23f85ba7f034576fa]
class flutter::src::widgets::scroll_controller.dart::ScrollController--><g id="elem_flutter::src::widgets::scroll_controller.dart::ScrollController"><rect fill="#F1F1F1" height="48" id="flutter::src::widgets::scroll_controller.dart::ScrollController" rx="2.5" ry="2.5" style="stroke:#181818;stroke-width:0.5;" width="129" x="1079.5" y="774"/><ellipse cx="1094.5" cy="790" fill="#ADD1B2" rx="11" ry="11" style="stroke:#181818;stroke-width:1.0;"/><path d="M1097.2656,785.875 Q1097.4219,785.6563 1097.6094,785.5469 Q1097.7969,785.4375 1098.0156,785.4375 Q1098.3906,785.4375 1098.625,785.7031 Q1098.8594,785.9531 1098.8594,786.5625 L1098.8594,788.0156 Q1098.8594,788.625 1098.625,788.8906 Q1098.3906,789.1563 1098.0156,789.1563 Q1097.6719,789.1563 1097.4688,788.9531 Q1097.2656,788.7656 1097.1563,788.25 Q1097.1094,787.8906 1096.9219,787.7031 Q1096.5938,787.3281 1095.9844,787.1094 Q1095.375,786.8906 1094.75,786.8906 Q1093.9844,786.8906 1093.3438,787.2188 Q1092.7188,787.5469 1092.2188,788.2969 Q1091.7344,789.0469 1091.7344,790.0781 L1091.7344,791.1719 Q1091.7344,792.4063 1092.625,793.2344 Q1093.5156,794.0469 1095.1094,794.0469 Q1096.0469,794.0469 1096.7031,793.7969 Q1097.0938,793.6406 1097.5156,793.2031 Q1097.7813,792.9375 1097.9219,792.8594 Q1098.0781,792.7813 1098.2813,792.7813 Q1098.6094,792.7813 1098.8594,793.0469 Q1099.125,793.2969 1099.125,793.6406 Q1099.125,793.9844 1098.7813,794.3906 Q1098.2813,794.9688 1097.4844,795.2969 Q1096.4063,795.75 1095.1094,795.75 Q1093.5938,795.75 1092.3906,795.125 Q1091.4063,794.625 1090.7188,793.5625 Q1090.0313,792.4844 1090.0313,791.2031 L1090.0313,790.0469 Q1090.0313,788.7188 1090.6406,787.5781 Q1091.2656,786.4219 1092.3594,785.8125 Q1093.4531,785.1875 1094.6875,785.1875 Q1095.4219,785.1875 1096.0625,785.3594 Q1096.7188,785.5156 1097.2656,785.875 Z " fill="#000000"/><text fill="#000000" font-family="sans-serif" font-size="14" lengthAdjust="spacing" textLength="97" x="1108.5" y="795.7285">ScrollController</text><line style="stroke:#181818;stroke-width:0.5;" x1="1080.5" x2="1207.5" y1="806" y2="806"/><line style="stroke:#181818;stroke-width:0.5;" x1="1080.5" x2="1207.5" y1="814" y2="814"/></g><!--MD5=[9e867fba9217b2625850490d63de8b3c]
class dart::async::Timer--><g id="elem_dart::async::Timer"><rect fill="#F1F1F1" height="48" id="dart::async::Timer" rx="2.5" ry="2.5" style="stroke:#181818;stroke-width:0.5;" width="68" x="1284" y="774"/><ellipse cx="1299" cy="790" fill="#ADD1B2" rx="11" ry="11" style="stroke:#181818;stroke-width:1.0;"/><path d="M1301.7656,785.875 Q1301.9219,785.6563 1302.1094,785.5469 Q1302.2969,785.4375 1302.5156,785.4375 Q1302.8906,785.4375 1303.125,785.7031 Q1303.3594,785.9531 1303.3594,786.5625 L1303.3594,788.0156 Q1303.3594,788.625 1303.125,788.8906 Q1302.8906,789.1563 1302.5156,789.1563 Q1302.1719,789.1563 1301.9688,788.9531 Q1301.7656,788.7656 1301.6563,788.25 Q1301.6094,787.8906 1301.4219,787.7031 Q1301.0938,787.3281 1300.4844,787.1094 Q1299.875,786.8906 1299.25,786.8906 Q1298.4844,786.8906 1297.8438,787.2188 Q1297.2188,787.5469 1296.7188,788.2969 Q1296.2344,789.0469 1296.2344,790.0781 L1296.2344,791.1719 Q1296.2344,792.4063 1297.125,793.2344 Q1298.0156,794.0469 1299.6094,794.0469 Q1300.5469,794.0469 1301.2031,793.7969 Q1301.5938,793.6406 1302.0156,793.2031 Q1302.2813,792.9375 1302.4219,792.8594 Q1302.5781,792.7813 1302.7813,792.7813 Q1303.1094,792.7813 1303.3594,793.0469 Q1303.625,793.2969 1303.625,793.6406 Q1303.625,793.9844 1303.2813,794.3906 Q1302.7813,794.9688 1301.9844,795.2969 Q1300.9063,795.75 1299.6094,795.75 Q1298.0938,795.75 1296.8906,795.125 Q1295.9063,794.625 1295.2188,793.5625 Q1294.5313,792.4844 1294.5313,791.2031 L1294.5313,790.0469 Q1294.5313,788.7188 1295.1406,787.5781 Q1295.7656,786.4219 1296.8594,785.8125 Q1297.9531,785.1875 1299.1875,785.1875 Q1299.9219,785.1875 1300.5625,785.3594 Q1301.2188,785.5156 1301.7656,785.875 Z " fill="#000000"/><text fill="#000000" font-family="sans-serif" font-size="14" lengthAdjust="spacing" textLength="36" x="1313" y="795.7285">Timer</text><line style="stroke:#181818;stroke-width:0.5;" x1="1285" x2="1351" y1="806" y2="806"/><line style="stroke:#181818;stroke-width:0.5;" x1="1285" x2="1351" y1="814" y2="814"/></g><!--MD5=[4a1921f911fbf862aafbf44ef46ec70d]
reverse link flutter::src::widgets::framework.dart::StatelessWidget to sprint1_smart_device::main.dart::MyApp--><g id="link_flutter::src::widgets::framework.dart::StatelessWidget_sprint1_smart_device::main.dart::MyApp"><path codeLine="7" d="M1303.31,108.55 C1305.29,113.07 1307.22,117.61 1309,122 C1343.36,206.53 1378.3,308.35 1395.33,359.24 " fill="none" id="flutter::src::widgets::framework.dart::StatelessWidget-backto-sprint1_smart_device::main.dart::MyApp" style="stroke:#181818;stroke-width:1.0;"/><polygon fill="none" points="1296.84,111.21,1295,90.1,1309.6,105.46,1296.84,111.21" style="stroke:#181818;stroke-width:1.0;"/></g><!--MD5=[df179dfa88d37a646e8058568eb0a929]
reverse link sprint1_smart_device::model::networking::tcp_client_connection.dart::TcpClientConnection to dart::io::Socket--><g id="link_sprint1_smart_device::model::networking::tcp_client_connection.dart::TcpClientConnection_dart::io::Socket"><path codeLine="37" d="M715.59,1213.54 C723.57,1237.81 731.09,1260.71 736.39,1276.84 " fill="none" id="sprint1_smart_device::model::networking::tcp_client_connection.dart::TcpClientConnection-backto-dart::io::Socket" style="stroke:#181818;stroke-width:1.0;"/><polygon fill="none" points="711.52,1201.15,709.5936,1208.099,715.2672,1212.5499,717.1936,1205.6009,711.52,1201.15" style="stroke:#181818;stroke-width:1.0;"/></g><!--MD5=[890638b68b5e038a7375a2cd7aca95ac]
reverse link sprint1_smart_device::model::networking::tcp_client_connection.dart::TcpClientConnection to dart::io::InternetAddress--><g id="link_sprint1_smart_device::model::networking::tcp_client_connection.dart::TcpClientConnection_dart::io::InternetAddress"><path codeLine="38" d="M633.82,1213.54 C625.73,1237.81 618.1,1260.71 612.72,1276.84 " fill="none" id="sprint1_smart_device::model::networking::tcp_client_connection.dart::TcpClientConnection-backto-dart::io::InternetAddress" style="stroke:#181818;stroke-width:1.0;"/><polygon fill="none" points="637.95,1201.15,632.2579,1205.5772,634.1553,1212.5342,639.8474,1208.107,637.95,1201.15" style="stroke:#181818;stroke-width:1.0;"/></g><!--MD5=[b6a860f301e90335a1910d1428eb4c76]
reverse link sprint1_smart_device::model::networking::client_connection.dart::ClientConnection to sprint1_smart_device::model::networking::tcp_client_connection.dart::TcpClientConnection--><g id="link_sprint1_smart_device::model::networking::client_connection.dart::ClientConnection_sprint1_smart_device::model::networking::tcp_client_connection.dart::TcpClientConnection"><path codeLine="39" d="M675,921.31 C675,939.63 675,958.43 675,976.51 " fill="none" id="sprint1_smart_device::model::networking::client_connection.dart::ClientConnection-backto-sprint1_smart_device::model::networking::tcp_client_connection.dart::TcpClientConnection" style="stroke:#181818;stroke-width:1.0;"/><polygon fill="none" points="668,921.3,675,901.3,682,921.3,668,921.3" style="stroke:#181818;stroke-width:1.0;"/></g><!--MD5=[a618490b2329088e047c75590564892e]
reverse link sprint1_smart_device::model::waste_service::store_request.dart::StoreRequest to sprint1_smart_device::model::waste_service::waste_type.dart::WasteType--><g id="link_sprint1_smart_device::model::waste_service::store_request.dart::StoreRequest_sprint1_smart_device::model::waste_service::waste_type.dart::WasteType"><path codeLine="50" d="M1894,483.07 C1894,561.09 1894,671.94 1894,738.91 " fill="none" id="sprint1_smart_device::model::waste_service::store_request.dart::StoreRequest-backto-sprint1_smart_device::model::waste_service::waste_type.dart::WasteType" style="stroke:#181818;stroke-width:1.0;"/><polygon fill="none" points="1894,469.87,1890,475.87,1894,481.87,1898,475.87,1894,469.87" style="stroke:#181818;stroke-width:1.0;"/></g><!--MD5=[f79b9823bbe137673bbef01ad5eb6892]
reverse link sprint1_smart_device::model::waste_service::waste_type.dart::WasteType to sprint1_smart_device::model::waste_service::waste_type.dart::WasteType--><g id="link_sprint1_smart_device::model::waste_service::waste_type.dart::WasteType_sprint1_smart_device::model::waste_service::waste_type.dart::WasteType"><path codeLine="59" d="M1996.92,750.05 C2010.5,758.23 2019.5,774.22 2019.5,798 C2019.5,828.44 2004.75,846.1 1984.53,850.98 " fill="none" id="sprint1_smart_device::model::waste_service::waste_type.dart::WasteType-backto-sprint1_smart_device::model::waste_service::waste_type.dart::WasteType" style="stroke:#181818;stroke-width:1.0;"/><polygon fill="none" points="1984.53,745.02,1988.5801,750.9863,1995.6452,749.5425,1991.5951,743.5762,1984.53,745.02" style="stroke:#181818;stroke-width:1.0;"/></g><!--MD5=[8fbe9f20b4430ecd350d14b25098ad10]
reverse link dart::core::Enum to sprint1_smart_device::model::waste_service::waste_type.dart::WasteType--><g id="link_dart::core::Enum_sprint1_smart_device::model::waste_service::waste_type.dart::WasteType"><path codeLine="60" d="M2124.4,435.69 C2103.53,486.65 2065.04,574.13 2021,643 C1999.53,676.57 1971.72,711.06 1947.6,738.87 " fill="none" id="dart::core::Enum-backto-sprint1_smart_device::model::waste_service::waste_type.dart::WasteType" style="stroke:#181818;stroke-width:1.0;"/><polygon fill="none" points="2118.03,432.78,2131.99,416.84,2131.01,438.01,2118.03,432.78" style="stroke:#181818;stroke-width:1.0;"/></g><!--MD5=[124f3f1c16eca26e0c310cd6ea27bf4c]
reverse link flutter::src::widgets::framework.dart::StatefulWidget to sprint1_smart_device::view::view_home.dart::ViewHome--><g id="link_flutter::src::widgets::framework.dart::StatefulWidget_sprint1_smart_device::view::view_home.dart::ViewHome"><path codeLine="66" d="M722.55,71.04 C581.02,78.6 303.47,96.5 267,122 C185.56,178.93 152.72,300.93 141.3,359.21 " fill="none" id="flutter::src::widgets::framework.dart::StatefulWidget-backto-sprint1_smart_device::view::view_home.dart::ViewHome" style="stroke:#181818;stroke-width:1.0;"/><polygon fill="none" points="722.47,64.03,742.81,69.97,723.2,78.01,722.47,64.03" style="stroke:#181818;stroke-width:1.0;"/></g><!--MD5=[e8502285e29c9bf6f05c7e2455580428]
reverse link sprint1_smart_device::view::view_home.dart::_ViewHomeState to flutter::src::widgets::framework.dart::GlobalKey<FormState>--><g id="link_sprint1_smart_device::view::view_home.dart::_ViewHomeState_flutter::src::widgets::framework.dart::GlobalKey&lt;FormState&gt;"><path codeLine="84" d="M511.27,242.77 C542.15,195.6 583.01,148.78 634,122 C651.27,112.93 965.96,118.22 985,114 C1007.28,109.06 1030.65,99.38 1049.84,90.09 " fill="none" id="sprint1_smart_device::view::view_home.dart::_ViewHomeState-backto-flutter::src::widgets::framework.dart::GlobalKey&lt;FormState&gt;" style="stroke:#181818;stroke-width:1.0;"/><polygon fill="none" points="504.24,253.8,510.841,250.8972,510.7004,243.6875,504.0994,246.5903,504.24,253.8" style="stroke:#181818;stroke-width:1.0;"/></g><!--MD5=[a2d66fa43dc1f50d9897050635ef3e5f]
reverse link sprint1_smart_device::view::view_home.dart::_ViewHomeState to flutter::src::widgets::editable_text.dart::TextEditingController--><g id="link_sprint1_smart_device::view::view_home.dart::_ViewHomeState_flutter::src::widgets::editable_text.dart::TextEditingController"><path codeLine="85" d="M393.92,543.84 C368.09,629.97 338.24,729.49 324.98,773.73 " fill="none" id="sprint1_smart_device::view::view_home.dart::_ViewHomeState-backto-flutter::src::widgets::editable_text.dart::TextEditingController" style="stroke:#181818;stroke-width:1.0;"/><polygon fill="none" points="397.7,531.23,392.1475,535.8311,394.2591,542.7261,399.8116,538.125,397.7,531.23" style="stroke:#181818;stroke-width:1.0;"/></g><!--MD5=[66ad02e88f2d5dac4c112a203e28da7c]
reverse link sprint1_smart_device::view::view_home.dart::_ViewHomeState to sprint1_smart_device::model::networking::client_connection.dart::ClientConnection--><g id="link_sprint1_smart_device::view::view_home.dart::_ViewHomeState_sprint1_smart_device::model::networking::client_connection.dart::ClientConnection"><path codeLine="86" d="M526.23,542.64 C555.87,593.32 588.3,648.76 615.29,694.91 " fill="none" id="sprint1_smart_device::view::view_home.dart::_ViewHomeState-backto-sprint1_smart_device::model::networking::client_connection.dart::ClientConnection" style="stroke:#181818;stroke-width:1.0;"/><polygon fill="none" points="519.56,531.23,519.1315,538.4284,525.6114,541.5925,526.0398,534.3941,519.56,531.23" style="stroke:#181818;stroke-width:1.0;"/></g><!--MD5=[e8b61be2601dbe100f97d012d792dc9b]
reverse link flutter::src::widgets::framework.dart::State to sprint1_smart_device::view::view_home.dart::_ViewHomeState--><g id="link_flutter::src::widgets::framework.dart::State_sprint1_smart_device::view::view_home.dart::_ViewHomeState"><path codeLine="87" d="M902.16,103.75 C896.84,107.87 891.07,111.48 885,114 C859.23,124.69 658.64,108.91 634,122 C579.3,151.05 536.2,203.06 504.59,253.69 " fill="none" id="flutter::src::widgets::framework.dart::State-backto-sprint1_smart_device::view::view_home.dart::_ViewHomeState" style="stroke:#181818;stroke-width:1.0;"/><polygon fill="none" points="897.59,98.45,917.04,90.03,907.08,108.74,897.59,98.45" style="stroke:#181818;stroke-width:1.0;"/></g><!--MD5=[2915d6c4ba1dcc57c1b3a36016be08c7]
reverse link sprint1_smart_device::view::view_request.dart::ViewRequest to sprint1_smart_device::model::networking::client_connection.dart::ClientConnection--><g id="link_sprint1_smart_device::view::view_request.dart::ViewRequest_sprint1_smart_device::model::networking::client_connection.dart::ClientConnection"><path codeLine="95" d="M784.86,456 C764.35,519.66 732.22,619.41 707.99,694.62 " fill="none" id="sprint1_smart_device::view::view_request.dart::ViewRequest-backto-sprint1_smart_device::model::networking::client_connection.dart::ClientConnection" style="stroke:#181818;stroke-width:1.0;"/><polygon fill="none" points="788.93,443.38,783.2828,447.8643,785.2502,454.8019,790.8974,450.3175,788.93,443.38" style="stroke:#181818;stroke-width:1.0;"/></g><!--MD5=[f08e0539b21fabbf2ace902e5f36aaaf]
reverse link sprint1_smart_device::view::view_request.dart::ViewRequest to null::dynamic Function(String, String)--><g id="link_sprint1_smart_device::view::view_request.dart::ViewRequest_null::dynamic Function(String, String)"><path codeLine="96" d="M828.17,455.12 C854.41,515.14 903.48,603.01 978,643 C1016.19,663.49 1327.8,634.79 1368,651 C1431.04,676.42 1484.31,739.49 1509.83,773.83 " fill="none" id="sprint1_smart_device::view::view_request.dart::ViewRequest-backto-null::dynamic Function(String, String)" style="stroke:#181818;stroke-width:1.0;"/><polygon fill="none" points="823.07,443.13,821.7416,450.2177,827.7732,454.1699,829.1016,447.0822,823.07,443.13" style="stroke:#181818;stroke-width:1.0;"/></g><!--MD5=[fbaf6e045e2febc3def60c3bad067d77]
reverse link flutter::src::widgets::framework.dart::StatefulWidget to sprint1_smart_device::view::view_request.dart::ViewRequest--><g id="link_flutter::src::widgets::framework.dart::StatefulWidget_sprint1_smart_device::view::view_request.dart::ViewRequest"><path codeLine="97" d="M805,110.18 C805,170.23 805,278.68 805,341.95 " fill="none" id="flutter::src::widgets::framework.dart::StatefulWidget-backto-sprint1_smart_device::view::view_request.dart::ViewRequest" style="stroke:#181818;stroke-width:1.0;"/><polygon fill="none" points="798,110.08,805,90.08,812,110.08,798,110.08" style="stroke:#181818;stroke-width:1.0;"/></g><!--MD5=[fd40ec0edde19233cfbc9bace4b84d55]
reverse link sprint1_smart_device::view::view_request.dart::_ViewRequestState to flutter::src::widgets::framework.dart::GlobalKey<FormState>--><g id="link_sprint1_smart_device::view::view_request.dart::_ViewRequestState_flutter::src::widgets::framework.dart::GlobalKey&lt;FormState&gt;"><path codeLine="125" d="M1105.75,152.8 C1101.7,127.55 1098.17,105.5 1095.7,90.08 " fill="none" id="sprint1_smart_device::view::view_request.dart::_ViewRequestState-backto-flutter::src::widgets::framework.dart::GlobalKey&lt;FormState&gt;" style="stroke:#181818;stroke-width:1.0;"/><polygon fill="none" points="1107.84,165.86,1110.8407,159.3029,1105.9421,154.011,1102.9414,160.5682,1107.84,165.86" style="stroke:#181818;stroke-width:1.0;"/></g><!--MD5=[b01240ef2e55f08ca3b973361685daa4]
reverse link sprint1_smart_device::view::view_request.dart::_ViewRequestState to flutter::src::widgets::editable_text.dart::TextEditingController--><g id="link_sprint1_smart_device::view::view_request.dart::_ViewRequestState_flutter::src::widgets::editable_text.dart::TextEditingController"><path codeLine="126" d="M1001.42,627.28 C993.63,633.08 985.49,638.36 977,643 C957.11,653.87 590.83,644.88 569,651 C480.41,675.83 390.57,739.45 346.28,773.94 " fill="none" id="sprint1_smart_device::view::view_request.dart::_ViewRequestState-backto-flutter::src::widgets::editable_text.dart::TextEditingController" style="stroke:#181818;stroke-width:1.0;"/><polygon fill="none" points="1011.82,619.05,1004.6328,619.6365,1002.4098,626.4964,1009.5971,625.9099,1011.82,619.05" style="stroke:#181818;stroke-width:1.0;"/></g><!--MD5=[4a3dc3a41162d15168e0a201f6984f79]
reverse link sprint1_smart_device::view::view_request.dart::_ViewRequestState to flutter::src::widgets::scroll_controller.dart::ScrollController--><g id="link_sprint1_smart_device::view::view_request.dart::_ViewRequestState_flutter::src::widgets::scroll_controller.dart::ScrollController"><path codeLine="127" d="M1144,632.39 C1144,690.53 1144,744.41 1144,773.8 " fill="none" id="sprint1_smart_device::view::view_request.dart::_ViewRequestState-backto-flutter::src::widgets::scroll_controller.dart::ScrollController" style="stroke:#181818;stroke-width:1.0;"/><polygon fill="none" points="1144,619.14,1140,625.14,1144,631.14,1148,625.14,1144,619.14" style="stroke:#181818;stroke-width:1.0;"/></g><!--MD5=[3fb5fdae20b65549e912a8b64d472377]
reverse link sprint1_smart_device::view::view_request.dart::_ViewRequestState to sprint1_smart_device::model::waste_service::waste_type.dart::WasteType--><g id="link_sprint1_smart_device::view::view_request.dart::_ViewRequestState_sprint1_smart_device::model::waste_service::waste_type.dart::WasteType"><path codeLine="128" d="M1303.62,625.02 C1313.02,631.73 1322.81,637.78 1333,643 C1365.35,659.57 1625.19,640.57 1660,651 C1719.74,668.9 1779.27,706.38 1823.33,738.88 " fill="none" id="sprint1_smart_device::view::view_request.dart::_ViewRequestState-backto-sprint1_smart_device::model::waste_service::waste_type.dart::WasteType" style="stroke:#181818;stroke-width:1.0;"/><polygon fill="none" points="1293.19,617.17,1295.5795,623.9737,1302.7789,624.3848,1300.3894,617.5811,1293.19,617.17" style="stroke:#181818;stroke-width:1.0;"/></g><!--MD5=[48845dddfa18ca150dec38e0a3c94666]
reverse link sprint1_smart_device::view::view_request.dart::_ViewRequestState to dart::async::Timer--><g id="link_sprint1_smart_device::view::view_request.dart::_ViewRequestState_dart::async::Timer"><path codeLine="129" d="M1246.54,631.29 C1271.8,689.85 1295.24,744.22 1308,773.8 " fill="none" id="sprint1_smart_device::view::view_request.dart::_ViewRequestState-backto-dart::async::Timer" style="stroke:#181818;stroke-width:1.0;"/><polygon fill="none" points="1241.3,619.14,1240.0064,626.2341,1246.0572,630.1567,1247.3509,623.0626,1241.3,619.14" style="stroke:#181818;stroke-width:1.0;"/></g><!--MD5=[b127ffb4bb140775e5c036e770d6cfee]
reverse link flutter::src::widgets::framework.dart::State to sprint1_smart_device::view::view_request.dart::_ViewRequestState--><g id="link_flutter::src::widgets::framework.dart::State_sprint1_smart_device::view::view_request.dart::_ViewRequestState"><path codeLine="130" d="M965.68,106.22 C969.57,111.47 973.43,116.83 977,122 C986.76,136.16 996.63,150.88 1006.43,165.82 " fill="none" id="flutter::src::widgets::framework.dart::State-backto-sprint1_smart_device::view::view_request.dart::_ViewRequestState" style="stroke:#181818;stroke-width:1.0;"/><polygon fill="none" points="960.02,110.34,953.5,90.18,971.17,101.87,960.02,110.34" style="stroke:#181818;stroke-width:1.0;"/></g><!--MD5=[3f4e89d0c19b7076a12a0282eedcadc4]
@startuml
set namespaceSeparator ::

class "sprint1_smart_device::main.dart::MyApp" {
  +Widget build()
}

"flutter::src::widgets::framework.dart::StatelessWidget" <|- - "sprint1_smart_device::main.dart::MyApp"

class "sprint1_smart_device::model::networking::client_connection.dart::ClientConnection" {
  +dynamic address
  +dynamic remoteAddress
  +dynamic port
  +dynamic remotePort
  +Future<void> connect()
  +Future<void> close()
  +Future<void> destroy()
  +dynamic listen()
  +dynamic sendMessage()
}

class "sprint1_smart_device::model::networking::server_connection.dart::ServerConnection" {
}

class "sprint1_smart_device::model::networking::tcp_client_connection.dart::TcpClientConnection" {
  -Socket _socket
  +InternetAddress address
  +InternetAddress remoteAddress
  +int port
  +int remotePort
  +Future<void> connect()
  +Future<void> close()
  +Future<void> destroy()
  +dynamic listen()
  +dynamic sendMessage()
}

"sprint1_smart_device::model::networking::tcp_client_connection.dart::TcpClientConnection" o- - "dart::io::Socket"
"sprint1_smart_device::model::networking::tcp_client_connection.dart::TcpClientConnection" o- - "dart::io::InternetAddress"
"sprint1_smart_device::model::networking::client_connection.dart::ClientConnection" <|- - "sprint1_smart_device::model::networking::tcp_client_connection.dart::TcpClientConnection"

class "sprint1_smart_device::model::waste_service::store_request.dart::StoreRequest" {
  +WasteType wasteType
  +double wasteWeight
  {static} +Map<String, dynamic> toJson()
  +String toJsonString()
  +String toQAKString()
  +bool equals()
}

"sprint1_smart_device::model::waste_service::store_request.dart::StoreRequest" o- - "sprint1_smart_device::model::waste_service::waste_type.dart::WasteType"

class "sprint1_smart_device::model::waste_service::waste_type.dart::WasteType" {
  +int index
  {static} +List<WasteType> values
  {static} +WasteType PLASTIC
  {static} +WasteType GLASS
}

"sprint1_smart_device::model::waste_service::waste_type.dart::WasteType" o- - "sprint1_smart_device::model::waste_service::waste_type.dart::WasteType"  
"dart::core::Enum" <|- - "sprint1_smart_device::model::waste_service::waste_type.dart::WasteType"

class "sprint1_smart_device::view::view_home.dart::ViewHome" {
  +State<ViewHome> createState()
}

"flutter::src::widgets::framework.dart::StatefulWidget" <|- - "sprint1_smart_device::view::view_home.dart::ViewHome"

class "sprint1_smart_device::view::view_home.dart::_ViewHomeState" {
  -GlobalKey<FormState> _formKeyConnection
  -TextEditingController _textControllerAddress
  -TextEditingController _textControllerPort
  -ClientConnection _tcpClientConnection
  -bool _isLoading
  -bool _error
  -String _errorTitle
  -String _errorMessage
  -bool _checkIPaddress()
  -bool _checkPort()
  -void _connect()
  -void _showAlertDialog()
  +Widget build()
}

"sprint1_smart_device::view::view_home.dart::_ViewHomeState" o- - "flutter::src::widgets::framework.dart::GlobalKey<FormState>"
"sprint1_smart_device::view::view_home.dart::_ViewHomeState" o- - "flutter::src::widgets::editable_text.dart::TextEditingController"
"sprint1_smart_device::view::view_home.dart::_ViewHomeState" o- - "sprint1_smart_device::model::networking::client_connection.dart::ClientConnection"   
"flutter::src::widgets::framework.dart::State" <|- - "sprint1_smart_device::view::view_home.dart::_ViewHomeState"

class "sprint1_smart_device::view::view_request.dart::ViewRequest" {
  +ClientConnection connection
  +dynamic Function(String, String) notifyParent
  +State<ViewRequest> createState()
}

"sprint1_smart_device::view::view_request.dart::ViewRequest" o- - "sprint1_smart_device::model::networking::client_connection.dart::ClientConnection"   
"sprint1_smart_device::view::view_request.dart::ViewRequest" o- - "null::dynamic Function(String, String)"
"flutter::src::widgets::framework.dart::StatefulWidget" <|- - "sprint1_smart_device::view::view_request.dart::ViewRequest"

class "sprint1_smart_device::view::view_request.dart::_ViewRequestState" {
  -GlobalKey<FormState> _formKeyRequest
  -TextEditingController _textControllerWeight
  -ScrollController _scrollController
  -bool _debug
  -WasteType _currentWasteType
  -String _reply
  -bool _waitingReply
  -String _waitingDots
  -Timer? _timer
  -int _timeoutCounter
  -List<String> _messages
  -bool _checkWeight()
  -void _logMessage()
  -String _getTimeStamp()
  -Future<void> _sendStoreRequest()
  -void _messageHandler()
  -void _errorHandler()
  -void _doneHandler()
  -void _startTimer()
  -void _stopTimer()
  +void didChangeDependencies()
  +void initState()
  +Widget build()
}

"sprint1_smart_device::view::view_request.dart::_ViewRequestState" o- - "flutter::src::widgets::framework.dart::GlobalKey<FormState>"
"sprint1_smart_device::view::view_request.dart::_ViewRequestState" o- - "flutter::src::widgets::editable_text.dart::TextEditingController"
"sprint1_smart_device::view::view_request.dart::_ViewRequestState" o- - "flutter::src::widgets::scroll_controller.dart::ScrollController"
"sprint1_smart_device::view::view_request.dart::_ViewRequestState" o- - "sprint1_smart_device::model::waste_service::waste_type.dart::WasteType"        
"sprint1_smart_device::view::view_request.dart::_ViewRequestState" o- - "dart::async::Timer"
"flutter::src::widgets::framework.dart::State" <|- - "sprint1_smart_device::view::view_request.dart::_ViewRequestState"


@enduml

PlantUML version 1.2022.7(Mon Aug 22 19:01:30 CEST 2022)
(GPL source distribution)
Java Runtime: Java(TM) SE Runtime Environment
JVM: Java HotSpot(TM) 64-Bit Server VM
Default Encoding: Cp1252
Language: it
Country: IT
--></g></svg>